<svg width="530" height="539" viewBox="0 0 530 539" fill="none" xmlns="http://www.w3.org/2000/svg">
<g id="face-expanded">
<path id="Path 1" d="M469.305 125.5C469.305 125.5 478.305 139.5 482.305 153C486.305 166.5 492.805 184.5 493.305 196.5C501.305 198.5 507.305 199 504.305 215C501.305 231 493.305 258 493.305 258C493.305 258 477.78 288.186 475.023 294.2C471.993 300.813 469.612 306.733 469.305 309.5C468.305 318.5 472.305 323.5 461.805 332C469.305 338 466.805 341.5 461.805 348C456.805 354.5 448.805 371.5 448.305 383.5C447.805 395.5 438.305 405.5 413.805 406.5C389.305 407.5 361.305 404 351.305 416" stroke="#999999" stroke-linecap="round" stroke-linejoin="round"/>
<path id="Path 2" d="M387.47 332C387.47 332 412.577 324.5 422.077 332" stroke="#999999" stroke-linecap="round"/>
<path id="Path 3" d="M476.472 225C476.472 225 507.805 274 496.139 286.333C484.473 298.666 474.472 290.333 469.139 296.666" stroke="#999999" stroke-linecap="round" stroke-linejoin="round"/>
<path id="Path 4" d="M425.805 291.333C425.805 291.333 434.472 282 441.805 286" stroke="#999999" stroke-linecap="round"/>
<path id="Path 5" d="M89.5 203.333C89.5 203.333 82.833 178.333 57.167 187.666C31.501 196.999 37.167 232.666 47.167 250.666C57.167 268.666 70.5 286.666 96.5 289.666" stroke="#999999" stroke-linecap="round" stroke-linejoin="round"/>
<path id="Path 6" d="M131.054 230C132.054 241.667 130.387 246.333 135.721 250C141.055 253.667 144.054 263.667 134.054 260.333C124.054 256.999 125.387 249.666 117.721 252.333C110.055 255 105.054 260 101.721 250" stroke="#999999" stroke-linecap="round" stroke-linejoin="round"/>
<path id="Path 7" d="M60.8329 196C60.8329 196 39.8329 206.333 49.4999 237.333C59.1669 268.333 72.1669 272.333 85.4999 272" stroke="#999999" stroke-linecap="round" stroke-linejoin="round"/>
<path id="Path 8" d="M262.805 189C262.805 189 334.472 169.333 428.805 180C452.472 178.667 475.472 179.333 479.805 198.667C484.138 218.001 467.805 248 460.805 254.667C453.805 261.334 451.138 265.334 439.472 260.334C427.806 255.334 423.055 252 425.805 228.5C428.555 205 430.555 197 430.555 197C430.555 197 381.972 196.333 365.305 197C348.638 197.667 269.305 195 269.305 195" stroke="#999999" stroke-linecap="round" stroke-linejoin="round"/>
<path id="Path 9" d="M452.055 187.25C444.555 190.25 438.805 208.75 437.555 216.25C436.305 223.75 428.305 245.75 434.805 251C441.305 256.25 447.555 260.75 455.305 255.25C463.055 249.75 475.055 227.25 477.305 216.25C479.555 205.25 478.555 195 469.055 189.25C459.555 183.5 452.055 187.25 452.055 187.25Z" stroke="#999999" stroke-linecap="round" stroke-linejoin="round"/>
<path id="Path 10" d="M479.805 197.875L493.68 196.5" stroke="#999999" stroke-linecap="round"/>
<path id="Path 11" d="M492.055 254C493.805 250 501.555 219.75 502.055 211.5C502.555 203.25 498.055 204.25 493.68 204.75C489.305 205.25 486.805 209.25 485.305 217C483.805 224.75 483.555 237.25 483.555 237.25" stroke="#999999" stroke-linecap="round" stroke-linejoin="round"/>
<path id="Path 12" d="M387.193 328.667C387.193 328.667 414.8 314.8 421.2 317.4" stroke="#999999" stroke-linecap="round"/>
<path id="Path 13" d="M387.297 336C387.297 336 404.697 338.2 409.497 343.2" stroke="#999999" stroke-linecap="round"/>
<path id="Path 15" d="M199.152 441.5C199.152 441.5 194 443.5 182.5 457C171 470.5 148.5 524 148 538C129.5 508 112.833 490.833 98.833 479.833C84.833 468.833 58.5 449 45.5 437C32.5 425 10.5 401.5 10.5 401.5C10.5 401.5 24.5 402.5 35 374C45.5 345.5 46.875 338 53.5 312.5C60.125 287 61.5 272 61.5 272" stroke="#999999" stroke-linecap="round" stroke-linejoin="round"/>
<path id="Path 16" d="M74.743 329.75C74.743 329.75 15.808 271 8.91901 204.5C2.03001 138 7.38802 132.5 11.981 122.5C16.574 112.5 44.893 107.5 44.893 107.5C44.893 107.5 27.293 101.5 8.91998 102.5C24.228 93 37.24 95.5 44.893 95C19.635 87.5 0.5 88.5 0.5 88.5C0.5 88.5 28.82 73.5 47.954 78.5C31.881 66 15.808 55 15.808 55C15.808 55 51.781 68 66.324 68C54.843 51 87.755 18 173.479 8C259.203 -2 334.979 18.5 385.492 0.5C371.715 15.5 371.715 14.5 400.034 13.5C428.353 12.5 445.192 42 501.066 49.5C465.858 53 428.354 49.5 454.377 62.5C480.4 75.5 543.163 98 526.324 115.5C515.609 103 475.808 102.5 460.5 102.5C498.769 110 496.473 115 501.066 125.5C449.785 110 454.377 114 445.192 115.5C481.931 126.5 484.227 137.5 484.227 137.5L437.538 125.5C437.538 125.5 420.699 88.5 368.653 88.5C316.607 88.5 288.287 77.5 286.753 102.5C285.219 127.5 211.745 168 189.553 169C178.376 169.4 167.737 173.895 159.66 181.63C158.823 182.466 157.944 183.257 157.024 184" stroke="#999999" stroke-linecap="round" stroke-linejoin="round"/>
<path id="Path 17" d="M149.48 195.25C149.48 195.25 145.23 202 147.23 217C149.23 232 137.98 202.5 137.98 202.5" stroke="#999999" stroke-linecap="round" stroke-linejoin="round"/>
<path id="Path 18" d="M224.73 350.428C249.712 372.616 248.312 384.609 286.987 394.906" stroke="#999999" stroke-linecap="round"/>
</g>
</svg>
