<svg width="347" height="539" viewBox="0 0 347 539" fill="none" xmlns="http://www.w3.org/2000/svg">
<g id="face-normal">
<path id="Path 1" d="M286 125.5C286 125.5 295 139.5 299 153C303 166.5 309.5 184.5 310 196.5C318 198.5 324 199 321 215C318 231 310 258 310 258C310 258 294.475 288.186 291.718 294.2C288.688 300.813 286.307 306.733 286 309.5C285 318.5 289 323.5 278.5 332C286 338 283.5 341.5 278.5 348C273.5 354.5 265.5 371.5 265 383.5C264.5 395.5 255 405.5 230.5 406.5C206 407.5 178 404 168 416" stroke="#999999" stroke-linecap="round" stroke-linejoin="round"/>
<path id="Path 2" d="M243.893 332C243.893 332 269 324.5 278.5 332" stroke="#999999" stroke-linecap="round"/>
<path id="Path 3" d="M293.167 225C293.167 225 324.5 274 312.834 286.333C301.168 298.666 291.167 290.333 285.834 296.666" stroke="#999999" stroke-linecap="round" stroke-linejoin="round"/>
<path id="Path 4" d="M274.167 291.333C274.167 291.333 282.834 282 290.167 286" stroke="#999999" stroke-linecap="round"/>
<path id="Path 5" d="M89.5 203.333C89.5 203.333 82.833 178.333 57.167 187.666C31.501 196.999 37.167 232.666 47.167 250.666C57.167 268.666 70.5 286.666 96.5 289.666" stroke="#999999" stroke-linecap="round" stroke-linejoin="round"/>
<path id="Path 6" d="M93.167 230C94.167 241.667 92.5 246.333 97.834 250C103.168 253.667 106.167 263.667 96.167 260.333C86.167 256.999 87.5 249.666 79.834 252.333C72.168 255 67.167 260 63.834 250" stroke="#999999" stroke-linecap="round" stroke-linejoin="round"/>
<path id="Path 7" d="M60.833 196C60.833 196 39.833 206.333 49.5 237.333C59.167 268.333 72.167 272.333 85.5 272" stroke="#999999" stroke-linecap="round" stroke-linejoin="round"/>
<path id="Path 8" d="M79.5 189C79.5 189 151.167 169.333 245.5 180C269.167 178.667 292.167 179.333 296.5 198.667C300.833 218.001 284.5 248 277.5 254.667C270.5 261.334 267.833 265.334 256.167 260.334C244.501 255.334 239.75 252 242.5 228.5C245.25 205 247.25 197 247.25 197C247.25 197 198.667 196.333 182 197C165.333 197.667 86 195 86 195" stroke="#999999" stroke-linecap="round" stroke-linejoin="round"/>
<path id="Path 9" d="M268.75 187.25C261.25 190.25 255.5 208.75 254.25 216.25C253 223.75 245 245.75 251.5 251C258 256.25 264.25 260.75 272 255.25C279.75 249.75 291.75 227.25 294 216.25C296.25 205.25 295.25 195 285.75 189.25C276.25 183.5 268.75 187.25 268.75 187.25Z" stroke="#999999" stroke-linecap="round" stroke-linejoin="round"/>
<path id="Path 10" d="M296.5 197.875L310.375 196.5" stroke="#999999" stroke-linecap="round"/>
<path id="Path 11" d="M308.75 254C310.5 250 318.25 219.75 318.75 211.5C319.25 203.25 314.75 204.25 310.375 204.75C306 205.25 303.5 209.25 302 217C300.5 224.75 300.25 237.25 300.25 237.25" stroke="#999999" stroke-linecap="round" stroke-linejoin="round"/>
<path id="Path 12" d="M243.893 328.667C243.893 328.667 271.5 314.8 277.9 317.4" stroke="#999999" stroke-linecap="round"/>
<path id="Path 13" d="M247.3 336C247.3 336 264.7 338.2 269.5 343.2" stroke="#999999" stroke-linecap="round"/>
<path id="Path 15" d="M192 407C192 407 194 443.5 182.5 457C171 470.5 148.5 524 148 538C129.5 508 112.833 490.833 98.833 479.833C84.833 468.833 58.5 449 45.5 437C32.5 425 10.5 401.5 10.5 401.5C10.5 401.5 24.5 402.5 35 374C45.5 345.5 46.875 338 53.5 312.5C60.125 287 61.5 272 61.5 272" stroke="#999999" stroke-linecap="round" stroke-linejoin="round"/>
<path id="Path 16" d="M49 329.75C49 329.75 10.5 271 6 204.5C1.5 138 5 132.5 8 122.5C11 112.5 29.5 107.5 29.5 107.5C29.5 107.5 18 101.5 6 102.5C16 93 24.5 95.5 29.5 95C13 87.5 0.5 88.5 0.5 88.5C0.5 88.5 19 73.5 31.5 78.5C21 66 10.5 55 10.5 55C10.5 55 34 68 43.5 68C36 51 57.5 18 113.5 8C169.5 -2 219 18.5 252 0.5C243 15.5 243 14.5 261.5 13.5C280 12.5 291 42 327.5 49.5C304.5 53 280 49.5 297 62.5C314 75.5 355 98 344 115.5C337 103 311 102.5 301 102.5C326 110 324.5 115 327.5 125.5C294 110 297 114 291 115.5C315 126.5 316.5 137.5 316.5 137.5L286 125.5C286 125.5 275 88.5 241 88.5C207 88.5 188.5 77.5 187.5 102.5C186.5 127.5 138.5 168 124 169C114.111 169.682 107.711 176.876 104.472 181.63C103.938 182.449 103.364 183.24 102.75 184" stroke="#999999" stroke-linecap="round" stroke-linejoin="round"/>
<path id="Path 17" d="M100.75 195.25C100.75 195.25 96.5 202 98.5 217C100.5 232 89.25 202.5 89.25 202.5" stroke="#999999" stroke-linecap="round" stroke-linejoin="round"/>
<path id="Path 18" d="M136.705 350.428C161.687 372.616 160.287 384.609 198.962 394.906" stroke="#999999" stroke-linecap="round"/>
</g>
</svg>
