<svg width="330" height="330" viewBox="0 0 330 330" fill="none" xmlns="http://www.w3.org/2000/svg">
<g clip-path="url(#clip0)">
<rect width="330" height="330" fill="#444444"/>
<path d="M18.2439 141.528C23.0427 143.159 27.2827 145.182 31.8011 147.383C34.4326 148.665 37.4174 149.363 39.9582 150.765C43.5553 152.75 46.4419 155.695 50.3038 157.16C58.3125 160.198 65.8789 164.731 73.496 168.642C77.5094 170.703 81.4762 172.524 85.2627 175.009C90.0822 178.172 95.5767 179.775 100.639 182.455C106.796 185.715 114.514 188.03 120.079 192.204C135.79 203.987 154.338 211.362 171.438 220.797C180.631 225.868 189.627 231.238 198.723 236.457C204.733 239.906 210.757 243.216 217.254 245.382" stroke="white" stroke-linecap="round" stroke-linejoin="round"/>
<path d="M217.254 245.382C222.669 244.407 227.817 242.811 232.829 240.806C237.408 238.974 241.038 235.678 245.392 233.501C247.59 232.402 249.611 230.528 251.417 228.897C254.203 226.381 257.6 224.579 260.455 222.104C263.694 219.297 267.525 218.101 270.943 215.709C275.604 212.446 281.401 210.46 285.58 206.5C287.092 205.068 290.381 205.495 292.345 204.966C295.272 204.176 298.08 203.11 300.388 201.157C303.489 198.533 307.525 196.04 311.16 194.222C314.745 192.429 317.662 189.294 321.107 187.571" stroke="white" stroke-linecap="round" stroke-linejoin="round"/>
<path d="M124.144 86.2758C131.69 87.2894 137.629 91.8846 144.494 94.8592C146.41 95.6896 148.411 96.2522 150.349 97.0192C152.05 97.6925 153.666 99.3914 155.379 99.6056C159.236 100.088 163.867 103.261 167.373 104.949C171.633 107 174.635 111.147 178.884 113.39C183.897 116.036 188.835 120.136 194.261 121.832C203.622 124.757 212.167 129.729 220.807 134.337C224.43 136.269 228.413 137.215 232.119 138.97C238.082 141.795 243.248 145.012 247.95 149.713C253.531 155.294 261.914 159.225 268.925 162.731C273.722 165.129 278.22 167.896 282.852 170.603C285.507 172.156 287.942 174.199 290.923 175.037C295.112 176.215 299.301 177.488 303.202 179.386C306.307 180.897 309.512 181.957 312.467 183.763C314.798 185.187 317.365 186.037 320.084 186.037" stroke="white" stroke-linecap="round" stroke-linejoin="round"/>
<path d="M16.1975 141.528C25.169 138.881 32.755 134.058 41.2088 130.301C46.4804 127.958 50.993 125.109 55.7039 121.86C63.9544 116.17 72.6786 111.197 80.6299 105.233C84.5686 102.279 89.4717 100.428 94.1303 98.8951C98.1593 97.5691 101.963 95.698 105.982 94.4613C110.012 93.2215 114.2 91.6901 118.118 90.1411C120.656 89.1381 122.326 87.317 124.655 85.7642" stroke="white" stroke-linecap="round" stroke-linejoin="round"/>
<path d="M25.4062 144.597C30.6173 142.558 35.3081 139.647 40.2993 137.151C43.5438 135.529 46.7517 134.263 49.4796 131.808C53.1048 128.545 57.1205 125.201 61.3315 122.713C72.6043 116.051 85.5687 113.917 97.2568 108.274C99.5076 107.188 101.957 106.55 104.192 105.432C106.646 104.205 108.22 102.356 110.331 100.714C113.712 98.0839 117.597 96.2796 121.33 94.2055C123.516 92.9913 125.959 92.3229 128.123 90.8801C130.212 89.4876 132.113 88.0532 134.376 87.299" stroke="white" stroke-linecap="round" stroke-linejoin="round"/>
<path d="M126.19 124.645C116.719 124.645 101.794 123.528 99.1894 135.9C98.5867 138.763 98.8381 142.638 99.1041 145.564C99.4109 148.938 102.901 150.211 105.613 151.362C111.229 153.745 118.156 154.383 124.144 153.295C125.915 152.973 128.907 152.794 130.283 151.532C132.407 149.586 134.005 147.596 135.683 145.28C138.23 141.763 142.083 133.404 139.207 129.221C136.734 125.624 130.904 123.622 126.702 123.622C121.445 123.622 117.306 128.181 113.4 130.785" stroke="white" stroke-linecap="round" stroke-linejoin="round"/>
<path d="M132.329 150.737C141.285 157.027 148.619 165.13 158.165 170.433C160.946 171.978 164.699 171.487 167.118 169.552C169.328 167.784 169.913 164.726 171.694 162.589C172.859 161.19 173.822 159.837 174.792 158.297C175.219 157.618 175.996 156.355 175.076 155.853C171.674 153.997 167.72 153.308 164.276 151.476C160.64 149.542 157.098 148.043 153.191 146.758C151.594 146.232 149.308 145.894 147.933 144.825C145.213 142.71 141.551 143.579 138.468 142.551" stroke="white" stroke-linecap="round" stroke-linejoin="round"/>
<path d="M162.513 183.99C170.359 177.125 178.493 170.816 187.78 166.028C190.704 164.52 193.718 163.194 196.534 161.48C199.402 159.735 202.205 158.211 204.975 156.364" stroke="white" stroke-linecap="round" stroke-linejoin="round"/>
<path d="M153.305 198.315C164.673 192.139 175.484 184.231 187.525 179.414C195.077 176.393 201.909 172.492 208.756 168.188C217.813 162.494 228.54 158.379 236.183 150.737" stroke="white" stroke-linecap="round" stroke-linejoin="round"/>
<path d="M211.626 193.711C205.478 193.802 198.711 194.583 192.811 196.269C188.338 197.547 185.246 200.677 186.132 205.847C187.967 216.55 202.267 219.006 211.115 216.221C215.376 214.879 219.457 213.42 221.347 208.945C222.349 206.57 222.55 201.327 220.835 199.367C216.801 194.756 208.395 190.345 203.952 196.269" stroke="white" stroke-linecap="round" stroke-linejoin="round"/>
<path d="M243.857 172.735C239.137 171.896 233.899 172.84 230.442 176.43C228.605 178.337 229.021 181.065 229.021 183.507C229.021 187.778 234.202 190.295 237.547 191.778C244.223 194.737 253.67 194.488 257.897 187.571C261.039 182.431 263.32 177.209 256.647 173.872C253.23 172.164 249.865 171.712 246.102 171.712C239.784 171.712 236.293 175.283 232.602 179.897" stroke="white" stroke-linecap="round" stroke-linejoin="round"/>
<path d="M199.348 236.684C203.388 233.599 208.308 232.277 212.849 230.062C215.451 228.793 217.649 227.307 220.039 225.714C222.608 224.001 225.37 222.545 228.054 221.024C232.079 218.743 235.096 215.462 238.712 212.668C241.856 210.239 244.611 207.944 248.291 206.472C252.245 204.89 255.67 201.812 259.489 199.85C262.291 198.409 263.785 195.757 266.367 194.222C269.62 192.288 272.147 188.485 275.689 187.173C279.147 185.893 283.351 184.419 286.575 182.683C289.28 181.226 294.586 179.222 296.039 176.316" stroke="white" stroke-linecap="round" stroke-linejoin="round"/>
<path d="M229.021 229.01C227.545 231.017 226.841 232.232 226.974 234.638C227.031 235.66 228.597 236.554 229.532 236.059C231.828 234.844 230 232.292 228.509 231.568C226.109 230.403 226.498 231.516 225.439 233.103" stroke="white" stroke-linecap="round" stroke-linejoin="round"/>
<path d="M260.228 208.035C260.536 211.814 263.737 212.743 267.106 211.588C267.578 211.426 270.772 210.671 269.436 209.968C268.424 209.435 260.781 206.306 262.274 208.547" stroke="white" stroke-linecap="round" stroke-linejoin="round"/>
<path d="M295.528 187.571C295.099 189.572 292.355 195.23 295.471 196.269C297.691 197.009 303.203 197.086 303.685 193.711C303.907 192.152 301.315 189.401 299.848 189.135C297.506 188.709 296.41 191.856 296.039 193.711" stroke="white" stroke-linecap="round" stroke-linejoin="round"/>
<path d="M194.232 146.132C189.161 142.99 184.005 139.985 178.884 136.924C177.283 135.966 175.606 135.18 174.28 133.854" stroke="white" stroke-linecap="round" stroke-linejoin="round"/>
<path d="M181.954 135.389C181.197 135.807 169.393 142.156 169.164 141.755C167.952 139.633 167.396 134.384 165.071 138.203C162.605 142.254 164.975 140.843 168.255 142.665C169.924 143.592 171.52 145.106 169.676 142.75C168.582 141.353 166.606 139.294 166.606 137.435" stroke="white" stroke-linecap="round" stroke-linejoin="round"/>
<path d="M172.234 136.412C174.076 133.474 175.963 130.664 178.259 128.113C179.856 126.339 180.827 125.179 178.373 124.39C177.778 124.199 172.712 121.64 174.394 121.576C176.547 121.493 178.529 122.087 180.647 122.087C183.73 122.087 182.313 134.748 179.396 131.182C176.479 127.617 172.365 124.602 178.373 122.599" stroke="white" stroke-linecap="round" stroke-linejoin="round"/>
<path d="M130.283 98.0425C128.883 99.4421 127.434 101.448 125.565 102.249C124.974 102.502 124.045 102.898 123.632 103.414C122.988 104.22 124.824 106.464 125.934 106.711C130.187 107.656 131.219 105.292 133.864 102.647C134.778 101.733 135.324 100.879 136.138 99.8331C137.576 97.9836 133.601 97.3279 132.585 96.7635C129.445 95.0188 126.887 98.184 125.679 100.6" stroke="white" stroke-linecap="round" stroke-linejoin="round"/>
<path d="M77.5886 131.808C82.3297 128.309 87.1679 125.095 92.2827 122.173C93.4331 121.515 95.0305 120.962 96.006 120.041C97.0613 119.044 98.9717 118.202 99.5872 116.971" stroke="white" stroke-linecap="round" stroke-linejoin="round"/>
<path d="M45.3583 142.04C43.7775 145.267 42.9286 146.651 46.3815 148.378C48.4221 149.398 50.4742 148.447 50.4742 146.132C50.4742 141.947 46.3497 141.064 44.3351 144.086" stroke="white" stroke-linecap="round" stroke-linejoin="round"/>
<path d="M44.3352 78.6019C37.8815 81.5806 31.9315 85.5979 25.4915 88.5496C22.2343 90.0425 18.3686 92.1052 15.686 94.4898C14.0747 95.922 13.0141 97.6173 11.1385 98.7815C9.32526 99.9069 5.4541 100.995 5.4541 103.499C5.4541 107.196 8.65317 110.188 12.5027 110.321C14.2501 110.381 16.0123 110.321 17.7608 110.321C21.6188 110.321 25.7799 106.881 28.9874 104.921C32.0583 103.044 34.7453 100.853 37.9687 99.1794C40.1072 98.069 42.2521 97.2555 44.3352 96.1098C46.8099 94.7487 48.9039 92.7545 51.2418 91.136C54.3941 88.9536 58.0644 87.9699 61.161 85.5369C62.1828 84.734 64.799 83.8004 64.799 82.1831C64.799 80.4673 60.2967 78.6018 58.9441 78.204C55.2247 77.1101 52.0966 77.0671 48.2006 77.0671C43.9116 77.0671 41.1414 82.1831 37.1729 82.1831" stroke="white" stroke-linecap="round" stroke-linejoin="round"/>
<path d="M11.593 5.44397C21.7557 8.18009 29.9214 13.8643 39.2191 18.6886C42.5501 20.4169 46.0655 21.6641 49.252 23.6624C52.8815 25.9385 56.3551 28.4409 59.9671 30.7394C64.8025 33.8166 70.0854 35.6394 75.5422 37.2765C83.2173 39.579 90.7658 43.8905 98.1661 46.9968C109.556 51.7779 121.018 57.2283 131.96 62.9699C137.498 65.8761 143.244 68.4335 148.53 71.7522C155.964 76.4206 164.228 79.8052 171.978 83.9452C178.681 87.5262 185.211 91.541 191.958 95.0013C198.897 98.5598 206.584 101.19 213.275 105.205C216.063 106.878 219.02 109.077 222.057 110.292C224.457 111.252 229.473 109.796 232.033 109.411C239.11 108.348 246.149 106.535 252.952 104.295C257.89 102.669 261.996 101.104 266.196 97.9288C269.145 95.6994 272.966 91.7884 276.599 90.8801" stroke="white" stroke-linecap="round" stroke-linejoin="round"/>
<path d="M226.974 109.809C233.88 106.114 240.996 103.33 248.063 100.032C253.354 97.5631 258.233 94.3912 263.638 92.1876C268.878 90.0514 274.553 87.9672 278.873 84.201C281.309 82.0773 283.465 80.0805 286.092 78.204C291.056 74.6578 296.858 71.7239 301.951 68.0858C307.166 64.3609 312.301 58.6165 318.549 56.8592C321.125 56.1348 323.037 55.1319 324.973 53.2496C326.439 51.8243 327.454 51.6228 325.03 50.6632C303.752 42.2408 283.005 31.7398 262.388 21.8434C256.825 19.1734 251.686 15.5163 246.017 13.1179C240.743 10.8868 235.675 8.28181 230.669 5.50085C223.542 1.54145 216.116 -1.96522 208.727 -5.41315C205.117 -7.09787 201.235 -9.11724 197.302 -9.90381" stroke="white" stroke-linecap="round" stroke-linejoin="round"/>
<path d="M171.21 10.5599C159.982 7.45421 147.472 3.42464 136.706 10.2757C132.85 12.7294 130.283 19.0268 130.283 23.4634C130.283 32.797 138.962 37.9531 146.455 41.7955C154.766 46.0574 165.217 47.2431 174.507 45.5757C185.906 43.5298 198.497 27.2223 189.315 16.4432C184.587 10.8922 175.8 7.09587 168.539 6.97874C159.688 6.83599 148.83 6.46469 143.073 14.1411" stroke="white" stroke-linecap="round" stroke-linejoin="round"/>
<path d="M153.305 27.9542C159.518 24.5772 166.341 21.6507 172.234 17.7223" stroke="white" stroke-linecap="round" stroke-linejoin="round"/>
<path d="M129.26 23.3497C120.447 24.9436 111.625 26.4193 102.657 26.4193" stroke="white" stroke-linecap="round" stroke-linejoin="round"/>
<path d="M135.399 28.4657C130.267 28.4657 121.023 28.6051 122.723 36.2533C123.4 39.3025 125.561 39.2115 127.981 39.7492C129.206 40.0215 129.905 41.8636 131.562 40.9713C132.867 40.2685 134.75 39.1195 135.797 38.0723C138.173 35.6965 133.926 42.5499 133.466 43.3019C132.872 44.2738 129.553 49.126 131.846 49.4126C134.644 49.7623 136.617 49.0513 138.696 47.1388C140.172 45.7805 141.217 44.214 142.561 42.7903C143.369 41.9354 145.016 38.035 144.096 41.6534C143.043 45.7952 142.079 51.0764 148.416 49.9242C150.181 49.6034 152.643 43.8582 153.191 44.0409C154.149 44.3604 154.38 52.7166 155.607 54.2159C157.029 55.9543 159.78 49.8366 160.439 48.9578C161.252 47.8733 161.122 45.7471 162.115 44.8367C162.203 44.7566 166.904 53.5679 167.629 54.5001C171.8 59.8629 176.59 53.5423 177.861 49.3273C178.374 47.6272 178.386 44.5237 180.675 45.9167C182.973 47.3153 183.653 50.7121 186.075 51.7716C187.966 52.599 190.601 53.8321 192.584 52.5106C194.295 51.37 194.69 44.9047 194.118 42.904C192.474 37.1482 198.349 40.2196 201.366 41.5397C202.959 42.2368 203.044 41.7054 202.304 39.9481C201.658 38.4146 202.895 37.2597 203.952 36.1396C205.532 34.4671 197.932 30.7616 204.464 30.4836C211.063 30.2028 217.291 29.6697 223.905 30.0005C224.942 30.0523 226.388 31.1457 227.088 30.0005C227.634 29.1065 230.071 27.7161 228.452 26.6751C226.217 25.238 223.912 24.6162 221.347 23.975C217.639 23.0481 214.159 22.0901 210.319 22.355C206.705 22.6042 203.225 23.3497 199.575 23.3497C198.76 23.3497 197.37 23.6112 196.62 23.236C196.026 22.9393 200.284 19.7842 200.599 19.5412C202.545 18.0372 206.377 16.7779 207.932 15.0505C208.512 14.4058 207.442 13.1401 207.079 12.7768C203.658 9.35612 198.532 9.08195 193.976 9.08195C190.152 9.08195 188.33 9.06316 186.757 12.2084C186.256 13.2105 185.794 15.1898 185.023 15.96C184.197 16.7865 185.555 13.6667 186.047 12.6063C187.664 9.11627 189.46 6.01634 190.651 2.37438C191.285 0.434176 193.475 -2.22996 190.395 -2.22996C189.259 -2.22996 187.203 -2.61178 186.217 -1.8889C184.409 -0.562777 182.934 1.13272 181.556 2.88598C180.429 4.32044 179.346 6.66815 178.771 4.02285C178.297 1.84236 177.92 -0.147248 177.861 -2.40049C177.802 -4.693 177.48 -3.96564 176.099 -2.85524C172.06 0.391527 168.178 3.36057 164.446 7.09241C162.964 8.5745 161.801 4.97472 161.263 3.65337C160.279 1.23853 159.36 -1.06092 157.284 -2.74156C154.395 -5.0802 154.824 -3.66636 153.248 -0.950978C151.351 2.3164 148.456 4.19447 146.029 6.86504C145.432 7.52133 145.56 8.44257 144.778 9.0251C142.641 10.6163 139.804 10.3752 137.559 9.25248C132.202 6.57385 126.005 7.48336 120.222 5.95554C119.396 5.73734 110.987 3.50216 110.444 4.64813C108.925 7.85659 116.673 12.8116 118.687 13.9137C122.358 15.9234 126.352 18.0153 130.169 19.7117C133.568 21.2222 123.827 20.5723 123.206 20.4791C118.631 19.793 114.166 18.2338 109.478 18.2338C106.672 18.2338 99.0316 18.5972 97.143 20.9054C96.2069 22.0496 98.5168 25.0189 99.3599 25.7087C101.534 27.4879 104.459 27.9541 107.233 27.9541C110.591 27.9541 112.902 26.6043 116.015 25.5666C119.939 24.2588 123.105 23.8613 127.213 23.8613" stroke="white" stroke-linecap="round" stroke-linejoin="round"/>
<path d="M187.07 65.8121C197.783 58.3671 209.429 53.0288 220.494 46.2862C224.65 43.7535 228.216 40.259 232.715 38.2997C234.877 37.3583 236.749 36.5086 238.769 35.3722C240.145 34.5984 241.343 33.5668 242.834 33.0701" stroke="white" stroke-linecap="round" stroke-linejoin="round"/>
<path d="M245.392 124.134C260.42 128.399 273.644 138.637 286.66 146.814C294.157 151.524 301.263 156.777 309.113 160.912C315.924 164.499 323.116 167.372 330.089 170.632C336.044 173.416 342.068 176.065 347.654 179.556C349.315 180.595 350.91 181.976 352.826 182.455" stroke="white" stroke-linecap="round" stroke-linejoin="round"/>
<path d="M246.926 120.041C255.245 115.033 263.532 109.741 272.676 106.342C279.892 103.659 287.418 101.845 294.703 99.3498C302.077 96.8246 309.845 93.4902 316.389 89.2317C326.648 82.5565 336.537 75.1369 346.687 68.37" stroke="white" stroke-linecap="round" stroke-linejoin="round"/>
<path d="M254.089 126.692C259.98 123.175 265.829 119.537 272.165 116.858C278.538 114.163 285.225 112.331 291.577 109.582C298.703 106.497 305.754 102.934 312.695 99.4636C324.502 93.5598 334.514 84.3651 347.199 80.1367" stroke="white" stroke-linecap="round" stroke-linejoin="round"/>
<path d="M44.8466 214.686C38.1485 215.845 32.1469 218.259 26.145 221.337C23.2067 222.843 19.1583 222.597 16.7089 224.918C12.6075 228.803 4.6151 231.553 7.3013 239.015C9.07523 243.943 16.1941 244.358 20.6027 244.358C26.1494 244.358 30.5145 242.519 35.0126 239.356C39.7885 235.998 43.5995 231.713 48.0299 227.987C50.6838 225.756 53.8514 223.072 55.5901 220.029C56.9691 217.616 57.145 217.208 54.2542 215.709C50.757 213.896 46.0043 212.544 42.0328 213.407C41.1747 213.593 39.8236 213.674 39.2191 214.43C38.8543 214.886 41.5013 214.845 42.0613 214.942C45.4283 215.522 49.5534 214.862 52.6342 216.732C57.9632 219.968 56.1729 226.324 52.4921 230.005C48.9741 233.523 42.6651 235.752 38.0254 237.196C34.5483 238.278 29.9798 239.774 26.9408 241.8" stroke="white" stroke-linecap="round" stroke-linejoin="round"/>
<path d="M5.45405 198.826C3.05449 202.954 1.59416 208.069 7.52885 209.058C13.0053 209.971 18.1894 209.595 21.5124 204.482C24.7281 199.535 17.7558 195.673 13.7532 194.734C7.76056 193.328 4.94245 197.849 4.94245 203.431" stroke="white" stroke-linecap="round" stroke-linejoin="round"/>
<path d="M32.5684 286.309C43.3417 290.767 52.2258 298.324 62.6956 303.362C71.2716 307.489 79.2111 312.734 87.5363 317.289C92.5822 320.05 98.2636 321.898 103.538 324.195C110.675 327.305 116.971 330.933 123.405 335.308C128.247 338.601 134.809 340.971 138.98 345.142" stroke="white" stroke-linecap="round" stroke-linejoin="round"/>
<path d="M31.0337 288.867C39.2422 286.053 46.87 282.228 54.6239 278.351C61.0449 275.14 66.1936 269.884 71.5633 265.22C79.5658 258.269 88.1793 252.81 98.2514 249.531C102.657 248.097 107.6 247.941 111.354 244.87C117.523 239.822 122.874 233.6 130.056 230.147C131.249 229.574 132.721 229.252 134.063 229.55C135.829 229.943 138.447 231.923 139.975 232.762C146.534 236.366 152.846 240.406 159.387 244.046C166.851 248.199 174.374 250.37 182.181 253.51C196.145 259.126 209.406 266.665 223.109 272.894C228.447 275.321 233.875 277.481 239.252 279.829C252.809 285.747 265.854 292.747 279.668 298.076C286.118 300.563 291.585 304.709 297.29 308.535C304.576 313.421 312.29 317.641 319.715 322.319C328.741 328.007 338.425 332.685 347.653 338.037C351.242 340.118 357.106 342.097 359.477 345.654" stroke="white" stroke-linecap="round" stroke-linejoin="round"/>
<path d="M191.162 276.589C191.214 273.091 192.382 269.515 190.168 266.471C188.561 264.261 186.027 262.863 183.716 261.525C181.619 260.311 179.007 260.342 176.724 259.706C174.649 259.128 172.638 257.701 170.471 257.66C166.929 257.592 163.702 256.633 162.286 260.275C161.359 262.657 160.692 267.317 162.513 269.398C167.87 275.52 177.476 275.054 184.739 277.129C185.328 277.297 189.04 278.399 189.116 277.1C189.266 274.559 189.116 271.974 189.116 269.426" stroke="white" stroke-linecap="round" stroke-linejoin="round"/>
<path d="M215.719 310.354C215.584 304.694 212.815 298.416 207.761 296.029C203.81 294.164 199.378 293.073 194.971 292.96C193.377 292.919 187.759 292.377 186.956 293.983C185.725 296.445 184.831 298.475 185.023 301.259C185.305 305.34 190.677 306.818 193.72 307.796C198.466 309.321 203.346 310.596 208.329 310.866C211.178 311.02 213.888 312.4 216.742 312.4" stroke="white" stroke-linecap="round" stroke-linejoin="round"/>
<path d="M127.725 313.935C127.792 310.733 130.079 306.285 127.497 303.703C124.965 301.171 120.755 299.535 117.493 298.076C113.018 296.074 101.087 293.494 100.127 301.174C99.0172 310.054 106.605 312.73 114.139 313.935C115.905 314.218 128.153 317.684 129.26 315.47" stroke="white" stroke-linecap="round" stroke-linejoin="round"/>
<path d="M115.447 310.866C118.628 310.788 120.995 308.769 119.426 305.238C117.47 300.837 113.106 300.634 108.597 300.634C106.465 300.634 106.75 302.967 106.75 304.442C106.75 306.555 109.161 306.852 110.842 307.54C112.912 308.387 118.981 310.495 120.051 307.284" stroke="white" stroke-linecap="round" stroke-linejoin="round"/>
<path d="M170.187 262.776C169.499 266.991 170.065 269.2 174.28 270.705C177.236 271.761 181.082 271.944 181.925 268.147C182.199 266.917 182.466 265.836 182.466 264.566C182.466 263.056 177.943 261.795 176.724 261.752C174.106 261.662 169.926 260.752 169.164 263.799" stroke="white" stroke-linecap="round" stroke-linejoin="round"/>
<path d="M198.836 296.029C196.907 296.029 193.557 295.458 191.674 296.143C190.065 296.728 190.118 297.479 189.23 298.701C187.098 301.633 192.516 303.685 194.346 304.101C197.61 304.843 202.582 306.141 205.885 305.124C207.381 304.664 207.978 303.85 208.045 302.282C208.295 296.401 198.217 293.02 193.721 295.518" stroke="white" stroke-linecap="round" stroke-linejoin="round"/>
<path d="M249.996 261.241C263.913 269.656 277.043 279.303 291.009 287.616C300.747 293.413 311.734 297.004 321.562 302.737C327.808 306.38 333.499 310.857 339.781 314.447C341.284 315.306 344.883 316.466 345.664 318.028" stroke="white" stroke-linecap="round" stroke-linejoin="round"/>
<path d="M249.484 260.729C260.982 256.066 273.177 253.814 283.647 246.916C292.313 241.207 300.407 234.251 308.659 227.93C316.522 221.908 326.059 218.158 333.3 211.389C338.159 206.847 343.485 203.051 348.222 198.315" stroke="white" stroke-linecap="round" stroke-linejoin="round"/>
<path d="M256.135 264.31C263.2 262.329 269.477 260.06 275.718 256.153C284.638 250.568 293.055 244.131 302.264 239.015C309.373 235.065 316.557 234.339 324.348 232.847C329.851 231.794 335.643 228.191 340.207 225.031C341.72 223.984 343.524 221.879 345.152 221.337" stroke="white" stroke-linecap="round" stroke-linejoin="round"/>
<path d="M329.805 235.661C323.042 239.687 317.04 245.03 309.938 248.394C306.147 250.19 301.76 250.758 298.199 253.055C294.113 255.692 286.101 262.012 292.344 266.868C302.362 274.66 313.97 259.803 321.221 254.704C325.821 251.47 330.025 247.806 334.636 244.614C337.404 242.698 340.98 239.994 342.083 236.684" stroke="white" stroke-linecap="round" stroke-linejoin="round"/>
<path d="M-4.26624 131.808C0.542818 125.396 7.4576 121.842 14.0374 117.483C17.7238 115.041 21.998 114.454 25.8041 112.367C29.5049 110.338 32.4283 107.324 36.036 105.205C40.4631 102.605 45.287 100.98 49.7353 98.5256C54.0681 96.1351 58.1595 93.1253 62.5252 90.8801C67.0436 88.5564 71.4409 86.4615 75.7698 83.7747C78.0058 82.3868 81.4404 81.334 84.0121 80.6482C86.8454 79.8927 88.6165 77.1471 91.2881 76.1576C93.1192 75.4794 94.324 75.2775 91.8566 73.3722C88.1912 70.542 83.6737 68.6457 79.5783 66.551C75.1221 64.2716 70.9019 61.5742 66.6179 58.9908C57.5132 53.5002 48.6761 47.2164 39.4182 42.0229C34.1944 39.0925 28.1093 38.4371 22.6209 36.1396C18.8897 34.5777 15.2105 33.5747 11.3942 32.3026C5.34864 30.2874 0.250075 24.8625 -5.80103 23.3497" stroke="white" stroke-linecap="round" stroke-linejoin="round"/>
<path d="M-11.9402 67.8584C-6.50849 63.2958 -0.964255 58.4532 5.25505 54.9548C9.19878 52.7365 13.4099 51.1234 17.2207 48.6736C19.3547 47.3017 20.4735 44.8176 21.825 42.7903" stroke="white" stroke-linecap="round" stroke-linejoin="round"/>
<path d="M-11.9402 76.0439C-6.80902 71.1408 -1.30989 66.3174 4.71504 62.5435C8.34166 60.2719 12.949 56.5294 17.2207 55.5802C19.9203 54.9803 21.3343 51.8215 23.8714 50.9758" stroke="white" stroke-linecap="round" stroke-linejoin="round"/>
<path d="M331.339 98.0425C324.69 98.9801 319.04 102.08 313.178 105.233C307.966 108.036 302.253 110.711 297.29 113.93C293.813 116.185 290.314 118.487 287.2 121.235C285.143 123.05 287.578 124.891 289.133 126.152C292.966 129.26 296.18 129.774 300.644 127.317C305.35 124.726 309.895 121.77 314.286 118.677C319.726 114.845 325.173 110.707 330.43 106.626C332.803 104.783 335.1 101.564 337.99 100.6" stroke="white" stroke-linecap="round" stroke-linejoin="round"/>
<path d="M-4.77786 268.403C-4.21215 269.057 -0.0188397 275.695 1.58864 275.224C4.34076 274.419 7.0336 271.765 9.34781 270.194C13.2513 267.543 17.4061 265.331 21.6545 263.287C35.8362 256.465 49.5757 248.077 62.4399 238.987C70.2965 233.435 78.6195 225.999 88.048 223.269C90.2587 222.629 92.9545 221.178 94.9829 220.086C97.4555 218.755 98.3613 215.553 100.838 214.203C101.584 213.796 94.5139 209.693 93.6755 209.144C85.7856 203.971 77.4565 199.583 69.3748 194.734C59.3669 188.729 48.8342 184.015 39.1055 177.567C29.3233 171.083 18.0891 167.551 7.07406 163.782C3.58265 162.588 -0.325542 160.874 -3.47045 158.922C-5.35475 157.753 -8.72599 156.069 -9.8938 154.318" stroke="white" stroke-linecap="round" stroke-linejoin="round"/>
<path d="M-10.3386 288.013C1.3675 294.981 13.0892 301.928 24.9438 308.638C35.5881 314.663 47.3422 318.729 58.4464 323.819C65.3331 326.975 71.4033 331.187 78.1291 334.55C80.5654 335.768 85.5169 337.442 86.7141 339.837" stroke="white" stroke-linecap="round" stroke-linejoin="round"/>
</g>
<defs>
<clipPath id="clip0">
<rect width="330" height="330" fill="white"/>
</clipPath>
</defs>
</svg>
