<svg width="330" height="330" viewBox="0 0 330 330" fill="none" xmlns="http://www.w3.org/2000/svg">
<g clip-path="url(#clip0)">
<rect width="330" height="330" fill="#444444"/>
<path d="M26.0757 258.62C26.1394 255.816 25.6956 247.661 29.9113 247.661C30.8344 247.661 33.8862 248.165 34.5383 247.327C35.2781 246.376 34.5364 243.278 36.2126 243.278C37.4051 243.278 39.2214 242.91 40.3222 243.4C41.654 243.992 42.0199 244.462 43.6098 244.374C46.3287 244.223 47.8575 241.173 50.7331 241.086C51.4662 241.064 53.3528 239.826 53.9903 240.782C54.9015 242.149 53.4728 237.523 53.4728 235.881C53.4728 233.625 51.924 228.537 54.8122 229.062C55.8484 229.25 57.8826 229.898 58.3738 228.179C58.6323 227.274 57.8874 225.281 58.6782 224.648C61.0116 222.781 63.671 222.086 66.319 221.33C67.8144 220.903 67.4532 218.354 69.3631 220.264C70.5301 221.431 70.7969 222.669 71.4331 224.1C72.5679 226.653 74.6412 227.275 77.4605 227.388C79.6933 227.477 79.226 230.454 79.226 232.045C79.226 235.538 79.7782 235.282 81.9353 237.799C83.2955 239.385 83.9593 239.49 86.0753 239.96C87.7259 240.327 86.7891 241.552 87.78 242.213C89.4382 243.318 89.5387 245.148 90.7328 246.566C92.3667 248.506 92.7811 248.442 95.6643 247.783C97.4158 247.383 100.059 248.144 101.692 248.879C103.767 249.813 103.91 248.276 105.649 248.209C107.227 248.149 108.384 246.828 109.241 248.757C109.918 250.28 110.243 251.406 111.433 252.715C113.478 254.965 114.294 257.266 114.294 260.264" stroke="white" stroke-linecap="round" stroke-linejoin="round"/>
<path d="M29.9114 248.209C37.9263 248.512 45.7137 250.25 53.7164 250.401C60.7528 250.534 67.7477 251.689 74.8426 251.497C83.6098 251.26 92.2878 248.757 101.144 248.757" stroke="white" stroke-linecap="round" stroke-linejoin="round"/>
<path d="M52.9248 239.99C60.0753 239.99 69.062 238.723 76.1515 240.264C78.9099 240.864 80.9182 239.442 83.6096 239.442" stroke="white" stroke-linecap="round" stroke-linejoin="round"/>
<path d="M55.6646 227.388C60.5035 227.388 66.4398 227.684 71.2505 226.809C73.0156 226.488 74.6723 225.744 76.4863 225.744" stroke="white" stroke-linecap="round" stroke-linejoin="round"/>
<path d="M86.8972 242.182C95.9107 243.631 104.684 244.98 113.746 245.896C117.445 246.27 121.402 246.166 125.04 246.84C129.813 247.724 134.662 247.731 139.5 247.662C141.713 247.63 143.849 247.114 146.075 247.114C149.734 247.114 153.19 247.959 156.79 248.453C162.691 249.263 168.698 249.379 174.629 249.853C180.32 250.309 185.993 250.787 191.676 249.975C206.154 247.907 221.477 246.736 235.694 243.278C237.049 242.948 238.217 242.121 239.469 241.756C241.459 241.175 245.472 243.326 247.444 243.704C253.28 244.822 259.101 244.922 265.009 244.922C270.466 244.922 275.858 244.001 281.356 244.496C287.469 245.045 293.555 245.763 299.681 246.048C306.536 246.367 312.69 247.6 319.407 246.139C322.458 245.476 325.478 245.228 328.57 245.744C330.889 246.13 332.64 246.442 334.019 244.374" stroke="white" stroke-linecap="round" stroke-linejoin="round"/>
<path d="M89.0891 155.607C97.745 157.43 104.979 159.828 112.894 163.522C116.23 165.079 117.034 164.909 117.034 169.184C117.034 173.343 117.917 177.436 117.552 181.635C117.205 185.624 116.971 189.831 115.695 193.659C114.994 195.762 116.588 198.993 113.625 198.895C106.147 198.645 98.7325 196.155 91.2809 196.155" stroke="white" stroke-linecap="round" stroke-linejoin="round"/>
<path d="M114.294 197.799C128.009 197.799 140.874 199.194 154.294 201.634C159.14 202.516 163.411 204.374 168.419 204.374C174.201 204.374 179.7 204.866 185.436 205.44C196.119 206.508 207.364 205.47 218.099 205.47C225.601 205.47 233.105 204.167 240.595 205.47C249.835 207.077 258.826 208.553 268.266 209.427C274.447 210 280.792 211.647 286.866 212.898C292.48 214.054 298.136 215.031 303.761 216.185C307.977 217.05 312.296 217.018 316.515 218.073C317.968 218.436 321.653 219.358 322.634 220.143C323.434 220.782 326.198 220.264 327.2 220.264C329.023 220.264 330.57 220.812 332.375 220.812" stroke="white" stroke-linecap="round" stroke-linejoin="round"/>
<path d="M89.6371 156.703C89.6371 147.408 89.6371 138.114 89.6371 128.819C89.6371 124.366 90.7329 120.036 90.7329 115.607C90.7329 114.168 90.5239 108.833 91.9201 108.484C95.8931 107.491 100.044 107.985 104.066 108.362C108.027 108.734 112.065 108.698 115.999 109.154C118.674 109.464 123.609 108.749 123.609 112.411C123.609 114.032 124.502 125.47 122.148 125.47C114.536 125.47 105.862 124.936 98.4041 123.279C95.4247 122.617 92.1337 122.183 89.0891 122.183" stroke="white" stroke-linecap="round" stroke-linejoin="round"/>
<path d="M121.966 124.375C122.056 133.513 124.947 142.036 126.319 150.95C127.255 157.038 126.472 163.456 127.415 169.58C127.687 171.35 127.666 173.651 128.267 175.333C129.085 177.623 128.712 178.621 126.349 178.621C123.563 178.621 121.131 176.977 118.404 176.977C117.848 176.977 115.785 177.449 117.156 177.22C119.552 176.821 121.983 176.597 124.37 176.155C129.616 175.184 135.701 174.785 141.022 174.785C143.985 174.785 146.948 174.785 149.911 174.785C150.344 174.785 153.38 175.21 153.624 175.455C155.403 177.233 154.371 183.736 154.72 186.048C154.998 187.888 154.793 190.613 155.512 192.319C157.041 195.951 156.357 200.151 157.582 203.826" stroke="white" stroke-linecap="round" stroke-linejoin="round"/>
<path d="M126.349 161.087C138.972 161.087 151.513 163.278 164.157 163.278C167.222 163.278 170.286 163.278 173.35 163.278C176.503 163.278 176.067 162.718 176.76 166.14C178.567 175.063 176.68 184.525 178.282 193.537C178.851 196.737 177.856 206.528 177.856 203.278" stroke="white" stroke-linecap="round" stroke-linejoin="round"/>
<path d="M176.76 174.785C183.712 175.325 190.459 175.768 197.277 177.007C198.911 177.304 201.052 177.178 202.635 177.647C203.657 177.949 206.864 177.621 207.445 178.347C208.571 179.755 208.54 181.764 208.54 183.552C208.54 191.028 207.992 198.665 207.992 206.018" stroke="white" stroke-linecap="round" stroke-linejoin="round"/>
<path d="M207.445 186.292C211.088 186.292 219.499 185.727 219.499 190.676C219.499 196.042 220.595 201.226 220.595 206.566" stroke="white" stroke-linecap="round" stroke-linejoin="round"/>
<path d="M218.951 187.388C221.634 185.003 224.063 185.196 227.414 185.196C229.551 185.196 230.221 188.232 230.884 189.762C232.52 193.538 233.746 198.037 233.746 202.182" stroke="white" stroke-linecap="round" stroke-linejoin="round"/>
<path d="M228.814 184.648C234.799 185.015 240.913 187.388 246.896 187.388C249.02 187.388 250.184 187.232 250.184 189.61C250.184 195.079 250.184 200.549 250.184 206.018" stroke="white" stroke-linecap="round" stroke-linejoin="round"/>
<path d="M251.28 189.032C254.047 189.52 260.058 189.437 262.482 190.98C263.88 191.87 265.782 191.633 266.348 193.446C267.686 197.727 266.622 203.653 266.622 208.21" stroke="white" stroke-linecap="round" stroke-linejoin="round"/>
<path d="M266.622 196.703C269.811 196.703 275.224 195.591 278.129 197.129C279.499 197.854 278.677 202.712 278.677 204.1C278.677 206.937 279.225 215.43 279.225 212.593" stroke="white" stroke-linecap="round" stroke-linejoin="round"/>
<path d="M278.677 196.155C281.898 195.878 287.729 194.405 290.975 195.881C292.527 196.586 292.521 197.314 292.802 199.138C293.423 203.176 293.471 207.984 293.471 212.045" stroke="white" stroke-linecap="round" stroke-linejoin="round"/>
<path d="M292.923 198.347C296.245 198.396 302.786 198.285 302.786 202.73C302.786 206.958 302.238 211.086 302.238 215.333" stroke="white" stroke-linecap="round" stroke-linejoin="round"/>
<path d="M300.595 199.991C300.595 198.668 299.588 191.274 301.965 191.802C304.106 192.278 307.766 191.555 309.636 192.593C312.503 194.186 310.907 198.672 312.223 201.634C313.021 203.431 313.146 206.241 313.197 208.21C313.202 208.376 313.67 211.877 314.171 211.376C314.877 210.67 314.202 207.329 314.019 206.596C313.345 203.901 313.867 203.826 316.455 203.826C317.831 203.826 325.8 203.406 325.8 205.196C325.8 210.806 328.54 215.989 328.54 221.36" stroke="white" stroke-linecap="round" stroke-linejoin="round"/>
<path d="M324.704 207.662C324.704 205.886 323.663 198.826 324.826 197.373C326.066 195.822 329.942 196.703 331.827 196.703" stroke="white" stroke-linecap="round" stroke-linejoin="round"/>
<path d="M226.622 184.1C226.622 179.103 226.442 173.931 225.557 169.062C225.286 167.572 215.563 165.782 213.715 165.166C212.367 164.716 198.755 159.365 201.417 156.703C206.257 151.863 216.908 155.059 222.909 155.059C224.786 155.059 226.663 155.059 228.54 155.059C232.48 155.059 230.756 151.867 231.432 148.484C231.901 146.14 231.183 143.683 231.828 141.361C232.023 140.658 231.768 138.316 232.406 137.86C234.534 136.34 235.938 144.982 235.938 145.744C235.938 149.528 238.878 147.388 241.66 147.388C243.822 147.388 246.885 147.883 248.966 147.266C251.957 146.38 250.592 142.479 249.91 140.295C249.751 139.787 249.583 137.648 250.732 138.865C251.626 139.811 251.792 143.148 251.828 144.405C251.926 147.856 253.143 147.388 256.455 147.388C258.313 147.388 262.036 148.098 263.456 146.962C265.324 145.468 268.216 144.966 270.701 144.374C273.931 143.606 273.006 142.966 273.198 139.717C273.296 138.048 277.337 144.263 277.551 145.44C277.994 147.88 277.142 148.93 279.651 149.702C282.589 150.606 285.761 149.032 288.875 149.032C292.902 149.032 298.42 148.642 302.238 150.25C303.731 150.878 305.327 150.37 306.835 150.95C308.157 151.458 307.619 152.741 307.992 153.933C308.168 154.497 308.727 156.096 307.718 156.155C305.398 156.292 303.412 158.339 301.812 159.869C296.443 165.005 290.179 168.091 283.608 171.376C280.26 173.05 281.939 176.398 282.482 179.93C282.72 181.479 281.597 186.344 282.634 187.266C282.89 187.493 285.911 186.362 286.348 186.322C288.476 186.129 290.773 185.744 292.893 185.744C293.911 185.744 297.395 185.17 297.733 185.744C299.289 188.389 299.499 192.03 299.499 195.059" stroke="white" stroke-linecap="round" stroke-linejoin="round"/>
<path d="M280.321 175.333C277.564 175.333 273.928 175.922 271.249 175.029C269.138 174.325 267.242 172.86 264.978 172.593C264.707 172.562 265.526 159.754 265.526 157.555C265.526 153.973 257.461 154.511 254.872 154.511C251.774 154.511 248.854 155.059 245.8 155.059C242.024 155.059 237.028 154.539 233.746 156.277C231.689 157.366 231.968 157.666 232.376 160.356C232.821 163.296 232.54 166.207 233.167 169.032C233.829 172.008 229.404 170.95 227.414 170.95C224.02 170.95 222.923 170.331 221.143 167.662" stroke="white" stroke-linecap="round" stroke-linejoin="round"/>
<path d="M234.294 167.114C230.015 165.688 225.669 164.129 221.722 161.909C220.733 161.352 215.254 159.157 216.303 158.895C219.916 157.992 223.453 157.251 227.17 157.251C228.958 157.251 230.429 157.261 232.102 156.703" stroke="white" stroke-linecap="round" stroke-linejoin="round"/>
<path d="M264.43 155.607C273.785 155.607 283.005 155.059 292.254 155.059C294.359 155.059 298.08 153.576 295.541 157.677C293.532 160.923 288.946 161.536 285.557 162.152C284.619 162.322 283.141 163.513 282.634 164.374C282.194 165.123 280.851 165.298 280.047 165.744C277.204 167.323 277.581 170.546 277.581 173.659C277.581 176.329 277.581 173.472 277.581 172.472C277.581 170.128 277.581 167.784 277.581 165.44C277.581 162.528 277.581 159.615 277.581 156.703" stroke="white" stroke-linecap="round" stroke-linejoin="round"/>
<path d="M223.335 163.278C223.335 161.087 223.335 158.895 223.335 156.703" stroke="white" stroke-linecap="round" stroke-linejoin="round"/>
<path d="M283.608 153.416C283.608 156.234 284.156 158.881 284.156 161.635" stroke="white" stroke-linecap="round" stroke-linejoin="round"/>
<path d="M288.54 154.511C288.982 156.777 289.088 158.802 289.088 161.087" stroke="white" stroke-linecap="round" stroke-linejoin="round"/>
<path d="M249.971 150.11C250.13 151.026 250.285 151.851 250.285 152.776C250.285 153.068 250.162 153.154 250.538 153.238C251.245 153.395 252.023 153.117 252.725 153.09C253.605 153.056 253.735 152.906 253.735 152.07C253.735 151.6 253.735 151.129 253.735 150.659C253.735 149.933 253.287 150.283 252.794 150.075C252.027 149.752 250.592 149.851 249.814 150.11" stroke="white" stroke-linecap="round" stroke-linejoin="round"/>
<path d="M253.735 149.169C256.036 149.169 258.278 149.012 260.566 149.012C261.817 149.012 263.122 148.894 264.321 149.16C265.301 149.378 265.184 149.827 265.184 150.729C265.184 151.33 265.354 152.091 264.713 152.428C263.26 153.192 261.551 153.247 259.956 153.247C258.501 153.247 257.058 153.403 255.617 153.403C255.192 153.403 253.269 153.412 253.108 153.09" stroke="white" stroke-linecap="round" stroke-linejoin="round"/>
<path d="M257.342 149.012C257.424 149.515 257.304 152.776 257.813 152.776" stroke="white" stroke-linecap="round" stroke-linejoin="round"/>
<path d="M261.106 149.796C261.164 150.16 261.257 152.459 261.577 152.619" stroke="white" stroke-linecap="round" stroke-linejoin="round"/>
<path d="M240.875 154.658C241.124 152.819 241.01 151.023 240.875 149.204C240.828 148.569 240.433 147.665 241.189 147.287" stroke="white" stroke-linecap="round" stroke-linejoin="round"/>
<path d="M240.718 150.424C238.77 150.656 236.709 150.737 234.75 150.737C234.344 150.737 233.475 150.737 233.731 151.138C234.031 151.61 234.269 152.395 234.445 152.924C234.952 154.445 237.655 153.142 238.68 153.09C239.631 153.041 240.2 153.036 241.032 152.619" stroke="white" stroke-linecap="round" stroke-linejoin="round"/>
<path d="M236.955 150.581C237.074 151.433 237.268 152.101 237.268 152.933" stroke="white" stroke-linecap="round" stroke-linejoin="round"/>
<path d="M65.8848 175.254C65.8848 168.334 66.0637 161.422 66.0637 154.51C66.0637 152.295 66.2426 150.114 66.2426 147.9C66.2426 146.972 66.0637 146.139 66.0637 145.197" stroke="white" stroke-linecap="round" stroke-linejoin="round"/>
<path d="M66.9583 156.29C71.7818 157.307 76.4866 159.432 81.49 159.51C82.7646 159.53 91.9701 161.55 91.8272 161.836" stroke="white" stroke-linecap="round" stroke-linejoin="round"/>
<path d="M66.0637 167.024C68.6792 167.024 71.2537 167.104 73.8564 167.382C75.7053 167.579 77.414 168.262 79.2536 168.456C81.0122 168.641 82.6717 168.774 84.452 168.813C86.4191 168.857 88.2189 169.887 90.217 169.887" stroke="white" stroke-linecap="round" stroke-linejoin="round"/>
<path d="M67.4949 174.896C73.7716 176.31 80.1005 177.831 86.1018 180.164C87.5825 180.74 89.689 181.158 91.2903 181.158" stroke="white" stroke-linecap="round" stroke-linejoin="round"/>
<path d="M65.8848 187.957C69.0828 188.286 72.3427 188.505 75.4864 189.21C77.484 189.657 79.4752 190.283 81.5397 190.283C83.4361 190.283 85.2611 189.786 87.1357 189.746C88.5303 189.717 90.5478 188.928 91.8272 189.567" stroke="white" stroke-linecap="round" stroke-linejoin="round"/>
<path d="M211.304 216.83C212.153 223.921 212.12 230.927 212.12 238.054" stroke="white" stroke-linecap="round" stroke-linejoin="round"/>
<path d="M212.547 227.706C213.904 227.57 215.276 227.368 216.643 227.368C217.135 227.368 217.62 227.452 218.11 227.452C218.731 227.452 218.621 227.359 218.621 226.721C218.621 225.625 218.692 224.571 218.874 223.487C219.037 222.516 219.172 221.546 219.287 220.568C219.378 219.781 219.571 218.886 219.502 218.084C219.488 217.924 219.481 217.66 219.408 218.004C219.203 218.975 219.131 219.943 219.043 220.928C218.853 223.04 218.928 225.192 219.291 227.279C219.541 228.718 219.412 230.134 219.568 231.567C219.607 231.93 219.748 232.273 219.783 232.636C219.874 233.564 219.918 234.535 219.882 235.467C219.851 236.26 219.718 237.032 219.718 237.829" stroke="white" stroke-linecap="round" stroke-linejoin="round"/>
<path d="M222.164 238.082C222.186 235.215 222.803 232.428 223.074 229.58C223.291 227.29 223.619 225.086 224.273 222.878C224.6 221.776 224.483 220.636 224.742 219.522C224.821 219.182 224.742 218.737 225.075 218.552C225.668 218.223 226.777 222.224 226.832 222.419C227.27 223.955 227.55 225.55 227.863 227.115C228.12 228.398 228.336 229.683 228.449 230.986C228.581 232.51 228.715 234.241 229.33 235.664C229.547 236.164 229.757 236.772 229.757 237.323" stroke="white" stroke-linecap="round" stroke-linejoin="round"/>
<path d="M223.092 229.983C224.325 229.983 225.507 230.102 226.729 230.255C226.993 230.288 227.512 230.302 227.648 230.574" stroke="white" stroke-linecap="round" stroke-linejoin="round"/>
<path d="M230.769 237.323C230.769 233.774 230.556 230.208 230.69 226.66C230.769 224.546 231.041 222.438 231.186 220.328C231.228 219.72 231.278 219.662 231.463 220.357C231.69 221.21 232.02 222.028 232.288 222.869C232.698 224.157 232.983 225.467 233.263 226.787C233.465 227.744 233.724 228.67 234.013 229.604C234.271 230.441 234.351 231.29 234.5 232.149C234.659 233.067 234.822 233.949 234.903 234.876C234.913 234.995 235.085 235.887 235.114 235.772C235.307 235 235.343 234.168 235.508 233.386C235.813 231.941 236.326 230.555 236.74 229.14C237.511 226.511 237.759 223.846 237.94 221.125C238.038 219.664 238.193 224.047 238.193 225.512C238.193 227.28 238.242 229.026 238.343 230.789C238.414 232.019 238.319 233.195 238.573 234.408C238.719 235.106 238.784 235.769 238.784 236.479" stroke="white" stroke-linecap="round" stroke-linejoin="round"/>
<path d="M241.315 237.238C241.315 234.373 241.483 231.513 241.483 228.648C241.483 227.148 241.516 225.609 241.755 224.125C241.871 223.406 241.919 222.691 241.985 221.969C242.001 221.794 241.975 220.999 242.149 220.91C242.846 220.552 243.988 220.857 244.736 220.961C245.724 221.099 245.983 221.87 246.123 222.766C246.248 223.563 246.411 224.474 246.25 225.282C246.095 226.056 245.33 226.425 244.727 226.843C244.42 227.056 244.103 227.247 243.78 227.434C243.689 227.486 243.38 227.537 243.484 227.537C244.564 227.537 245.712 227.832 246.461 228.652C247.686 229.995 248.215 232.386 247.454 234.098C246.791 235.591 245.358 237.332 243.63 237.557C243.161 237.618 242.615 237.577 242.163 237.445C241.643 237.293 241.288 236.726 240.977 236.31" stroke="white" stroke-linecap="round" stroke-linejoin="round"/>
<path d="M250.017 220.345C251.605 224.295 250.127 228.318 250.729 232.377C250.928 233.722 251.136 235.058 251.321 236.401C251.516 237.813 252.402 238.364 253.752 238.364C254.448 238.364 254.684 238.328 254.99 237.639C255.302 236.936 255.675 235.912 255.708 235.137C255.744 234.258 255.708 233.369 255.708 232.489C255.708 231.542 255.482 230.625 255.47 229.683C255.445 227.6 255.233 225.539 255.233 223.453C255.233 222.338 255.233 221.223 255.233 220.108" stroke="white" stroke-linecap="round" stroke-linejoin="round"/>
<path d="M258.671 237.652C258.671 232.195 259.145 226.751 259.145 221.293C259.145 220.565 260.241 219.878 260.924 220.002C261.537 220.114 262.109 220.963 262.438 221.438C262.911 222.12 263.199 223.103 263.413 223.901C263.917 225.784 262.927 226.64 261.641 227.872C261.271 228.227 260.909 228.532 260.449 228.761C259.768 229.102 260.079 229.338 260.449 229.907C261.942 232.204 262.598 234.955 263.769 237.297" stroke="white" stroke-linecap="round" stroke-linejoin="round"/>
<path d="M271 220.7C270.104 220.53 269.277 220.274 268.458 220.766C267.877 221.115 267.263 221.746 266.864 222.294C266.682 222.545 266.738 222.83 266.732 223.124C266.717 223.969 266.516 224.884 266.377 225.719C266.089 227.445 266.14 229.19 266.14 230.935C266.14 232.179 266.094 233.398 266.443 234.603C266.849 236.007 267.627 238.072 268.86 238.996C269.9 239.776 270.556 237.969 270.855 237.27C271.543 235.665 271.356 233.942 271.356 232.226C271.356 231.305 271.119 230.424 271.119 229.499C271.119 228.881 270.69 229.237 270.262 229.328C269.802 229.426 269.335 229.473 268.866 229.473" stroke="white" stroke-linecap="round" stroke-linejoin="round"/>
<path d="M281.195 221.411C280.067 221.464 279.359 222.146 279.114 223.196C278.713 224.915 279.376 226.157 280.049 227.727C281.092 230.161 282.855 232.425 282.855 235.163C282.855 236.454 282.639 237.163 281.959 238.252C281.67 238.715 281.114 239.905 280.418 239.905C279.617 239.905 278.779 238.551 278.587 237.863C278.386 237.143 278.35 236.27 278.35 235.519" stroke="white" stroke-linecap="round" stroke-linejoin="round"/>
<path d="M284.04 221.53C284.04 223.36 284.062 225.169 283.862 226.99C283.73 228.197 283.566 229.435 283.566 230.652C283.566 232.092 283.338 233.534 283.454 234.978C283.561 236.312 285.091 239.986 286.885 238.509C287.464 238.032 287.893 237.267 288.308 236.645C288.837 235.851 288.97 235.01 289.078 234.07C289.254 232.548 289.669 231.044 289.724 229.512C289.811 227.057 289.493 224.575 289.493 222.123" stroke="white" stroke-linecap="round" stroke-linejoin="round"/>
<path d="M292.576 222.716C293.021 225.79 292.992 228.733 292.931 231.817C292.889 233.945 292.246 236.108 292.483 238.245C292.497 238.371 292.56 239.73 292.628 239.734C293.444 239.777 294.612 239.332 295.276 238.93C296.776 238.021 296.942 236.73 296.962 235.123C296.987 233.136 297.093 231.074 296.935 229.091C296.812 227.536 296.564 225.889 295.592 224.639C295.29 224.25 295.041 223.798 294.683 223.453C294.464 223.243 294.114 223.211 293.906 223.045C293.596 222.797 293.036 222.943 292.694 222.716" stroke="white" stroke-linecap="round" stroke-linejoin="round"/>
<path d="M286.11 221.404C286.11 220.71 286.11 220.015 286.11 219.321" stroke="white" stroke-linecap="round" stroke-linejoin="round"/>
<path d="M288.316 220.792C288.316 220.138 288.316 219.484 288.316 218.831" stroke="white" stroke-linecap="round" stroke-linejoin="round"/>
<path d="M-7.34863 252.045C4.04702 252.819 14.6347 255.087 25.4974 258.346C27.5444 258.96 29.1528 259.168 31.2813 259.168C35.4383 259.168 39.9 259.86 43.9448 260.812C49.3061 262.073 54.8555 262.85 60.17 264.221C62.7549 264.888 66.8375 265.232 69.3632 264.221C72.5561 262.944 78.1545 264.1 81.5397 264.1C87.6118 264.1 93.907 263.552 99.8349 263.552C102.635 263.552 105.202 263.402 107.963 263.034C110.504 262.695 110.472 261.369 112.62 260.294C115.043 259.083 117.304 260.203 119.835 260.203C122.742 260.203 125.978 258.798 128.967 258.559C137.703 257.86 146.836 257.075 155.481 255.607C160.1 254.822 164.41 254.785 169.089 254.785C176.505 254.785 184.122 254.459 191.433 255.759C197.742 256.88 204.518 256.586 210.884 256.946C217.842 257.34 224.809 257.758 231.767 258.042C237.476 258.275 243.149 258.844 248.875 258.59C255.871 258.279 262.724 256.976 269.758 256.976C283.974 256.976 298.19 256.976 312.406 256.976C316.794 256.976 321.06 255.881 325.556 255.881C329.468 255.881 333.57 256.428 337.307 256.428" stroke="white" stroke-linecap="round" stroke-linejoin="round"/>
<path d="M-4.06104 246.018C3.37361 246.605 11.2954 246.884 18.5263 248.879C20.1918 249.339 22.5957 249.692 24.3102 249.184C28.077 248.067 32.5556 245.47 36.4867 245.47" stroke="white" stroke-linecap="round" stroke-linejoin="round"/>
<path d="M-4.06116 149.58C13.5113 148.533 31.0968 148.352 48.5413 146.414C53.4269 145.871 58.4462 145.196 63.3661 145.196C64.6279 145.196 66.16 144.615 67.2322 144.892C71.664 146.036 76.1993 147.004 80.535 148.484C82.9182 149.298 86.1184 152.035 88.541 152.32C90.482 152.548 90.2431 165.819 90.4588 167.632C91.4934 176.322 92.0659 185.142 92.3766 193.841C92.4184 195.013 92.9919 196.038 92.9246 197.251C92.8561 198.483 85.8487 197.799 84.949 197.799C80.7878 197.799 76.5435 198.055 72.4072 197.525C70.8921 197.331 68.0042 197.819 66.6233 197.129C64.3529 195.994 66.6233 184.009 66.6233 182.061C66.6233 179.96 66.6233 177.86 66.6233 175.759C66.6233 173.472 65.4408 174.588 63.7923 175.364C53.2561 180.322 40.2465 179.567 28.8762 180.386C22.6022 180.839 16.5215 181.361 10.2158 181.361C4.65192 181.361 -0.768952 183.004 -6.25293 183.004" stroke="white" stroke-linecap="round" stroke-linejoin="round"/>
<path d="M-2.41724 199.443C7.9511 198.341 18.3764 197.387 28.8155 197.921C32.3516 198.101 35.8045 198.972 39.3481 198.895C44.3806 198.785 49.4884 197.154 54.5383 196.733C58.9612 196.365 65.9143 195.252 69.9111 197.251" stroke="white" stroke-linecap="round" stroke-linejoin="round"/>
<path d="M-4.07031 161.657C3.55654 161.404 11.0539 162.154 18.5721 160.583C21.9389 159.88 25.1488 158.918 28.5913 158.526C33.0638 158.016 37.5224 157.315 41.9899 156.747C43.6606 156.534 45.297 156.742 46.9597 156.916C49.1761 157.148 51.3835 157.184 53.6093 157.184C55.5529 157.184 57.4696 157.067 59.4041 157.005C60.1886 156.98 61.0044 156.78 61.7698 156.608C62.4186 156.462 62.9098 156.623 63.5589 156.647C65.1701 156.708 66.8125 157.531 68.3895 157.005" stroke="white" stroke-linecap="round" stroke-linejoin="round"/>
<path d="M-4.96484 171.676C-0.0922108 170.736 4.80831 170.81 9.7458 171C12.4451 171.104 14.8624 170.763 17.4987 170.245C21.5021 169.458 25.475 169.887 29.5257 169.887C33.5866 169.887 37.8367 169.324 41.8508 168.774C45.2937 168.302 48.6376 168.098 52.1085 168.098C53.6659 168.098 55.1878 167.561 56.7702 167.561C58.2926 167.561 59.8545 167.382 61.3424 167.382C62.2395 167.382 63.1394 167.203 63.9963 167.203C64.3547 167.203 65.9216 166.093 65.1691 166.845" stroke="white" stroke-linecap="round" stroke-linejoin="round"/>
</g>
<defs>
<clipPath id="clip0">
<rect width="330" height="330" fill="white"/>
</clipPath>
</defs>
</svg>
