<svg width="330" height="330" viewBox="0 0 330 330" fill="none" xmlns="http://www.w3.org/2000/svg">
<g clip-path="url(#clip0)">
<rect width="330" height="330" fill="#444444"/>
<path d="M169.154 156.99C171.562 163.073 173.02 169.229 174.952 175.435C176.292 179.739 177.226 184.2 178.617 188.472C180.588 194.527 183.095 200.225 185.977 205.925C188.832 211.574 192.378 216.971 195.079 222.673C196.192 225.023 197.635 227.275 198.563 229.717C199.763 232.871 200.698 236.2 201.733 239.42C202.344 241.321 203.304 243.073 203.896 244.977C204.394 246.585 204.655 248.492 205.322 249.994C206.216 252.004 221.314 244.806 223.662 243.776C226.065 242.721 228.369 241.503 230.751 240.411C232.057 239.813 233.388 239.584 234.702 238.909C236.503 237.984 238.145 236.788 239.974 235.935C240.885 235.51 242.407 235.147 242.963 234.313" stroke="white" stroke-linecap="round" stroke-linejoin="round"/>
<path d="M210.519 146.176C211.267 149.466 212.287 152.702 213.013 155.969C213.208 156.847 213.596 157.651 213.899 158.492C214.255 159.483 214.213 160.548 214.575 161.526C215.273 163.415 216.396 164.998 217.218 166.783C218.026 168.538 218.429 170.434 219.171 172.19C220.978 176.472 222.163 180.979 223.767 185.318C224.402 187.037 224.866 188.562 225.78 190.154C227.143 192.531 228.964 194.686 229.925 197.274C230.291 198.258 230.211 199.287 230.541 200.278C231.158 202.128 231.504 204.074 232.028 205.955C232.716 208.426 233.104 211.041 234.041 213.435C235.16 216.296 236.683 218.979 237.555 221.937C238.408 224.827 239.685 227.491 241.07 230.108C241.78 231.449 243.233 232.789 243.233 234.313" stroke="white" stroke-linecap="round" stroke-linejoin="round"/>
<path d="M168.614 156.449C172.568 156.04 176.773 156.22 180.66 155.368C182.8 154.899 184.991 154.523 187.148 154.136C191.745 153.311 195.037 149.823 199.525 148.894C201.386 148.509 203.703 147.887 205.382 147.047C206.263 146.607 208.007 145.635 208.897 145.635" stroke="white" stroke-linecap="round" stroke-linejoin="round"/>
<path d="M179.428 145.635C178.812 147.251 178.665 147.717 180.029 148.609C180.483 148.906 182.075 149.628 182.131 148.609C182.212 147.168 180.831 146.421 179.698 146.987" stroke="white" stroke-linecap="round" stroke-linejoin="round"/>
<path d="M199.164 176.726C199.164 174.983 199.411 173.518 200.111 171.98C200.565 170.98 200.384 168.911 199.315 168.345C198.231 167.772 195.785 167.727 194.989 168.751C194.629 169.213 194.215 171.548 194.839 171.86" stroke="white" stroke-linecap="round" stroke-linejoin="round"/>
<path d="M199.705 179.7C200.773 181.015 201.974 180.969 201.868 179.16C201.832 178.554 200.872 179.031 200.666 179.295C200.418 179.615 200.516 180.13 200.516 180.511" stroke="white" stroke-linecap="round" stroke-linejoin="round"/>
<path d="M193.757 186.73C193.772 188.213 193.488 190.827 194.418 192.197C194.791 192.747 195.667 192.715 196.25 192.888C197.449 193.243 197.84 192.278 197.813 191.326C197.769 189.81 193.581 186.987 192.946 188.893" stroke="white" stroke-linecap="round" stroke-linejoin="round"/>
<path d="M195.379 190.244C195.98 190.641 198.299 191.487 198.623 192.137" stroke="white" stroke-linecap="round" stroke-linejoin="round"/>
<path d="M198.083 185.108C198.394 186.152 198.683 187.479 199.585 188.217C199.948 188.514 201.061 188.953 201.447 188.457C202.31 187.347 201.684 186.179 201.327 185.108" stroke="white" stroke-linecap="round" stroke-linejoin="round"/>
<path d="M204.031 183.215C204.577 184.329 206.194 186.503 206.194 187.811" stroke="white" stroke-linecap="round" stroke-linejoin="round"/>
<path d="M208.627 183.756C209.325 183.651 212.899 182.372 212.622 183.966C212.549 184.389 211.248 187.811 211.721 188.021C212.867 188.531 214.047 186.858 214.845 186.459" stroke="white" stroke-linecap="round" stroke-linejoin="round"/>
<path d="M192.946 205.925C196.219 204.438 199.691 203.363 203.115 202.275C206.79 201.108 210.699 200.571 214.289 199.166C215.483 198.699 219.105 197.947 219.712 196.733" stroke="white" stroke-linecap="round" stroke-linejoin="round"/>
<path d="M193.757 208.359C198.923 206.725 204.105 205.1 209.243 203.387C210.989 202.805 212.96 202.787 214.635 202.14C215.567 201.78 218.552 201.023 218.901 199.977" stroke="white" stroke-linecap="round" stroke-linejoin="round"/>
<path d="M196.19 212.684C202.967 210.539 209.44 207.947 216.407 206.466C218.083 206.11 220.436 206.073 221.875 205.114" stroke="white" stroke-linecap="round" stroke-linejoin="round"/>
<path d="M205.483 232.146C207.722 235.238 210.646 238.811 211.71 242.534C211.986 243.5 222.457 239.264 223.943 238.341C226.696 236.633 229.651 234.455 232.516 233.022C236.391 231.085 230.627 226.834 229.826 223.949C228.831 220.368 227.919 219.848 225.477 222.29C223.397 224.37 220.464 225.706 217.873 227.078C214.231 229.006 210.82 232.012 207.173 233.836" stroke="white" stroke-linecap="round" stroke-linejoin="round"/>
<path d="M183.926 216.075C182.672 220.995 181.601 225.979 180.271 230.857C179.415 233.995 179.523 237.206 178.593 240.305C177.941 242.479 178.311 245.166 177.904 247.405C177.747 248.266 177.569 249.208 177.569 250.089C177.569 250.644 177.569 252.282 177.569 250.831C177.569 247.506 178.707 243.047 179.97 239.987C181.202 237.005 182.662 234.243 184.244 231.475C185.552 229.186 185.449 225.645 188.059 224.34" stroke="white" stroke-linecap="round" stroke-linejoin="round"/>
<path d="M193.145 240.552C192.442 245.543 190.58 250.023 188.942 254.61C188.462 255.954 187.799 257.484 186.787 258.495C186.009 259.274 185.046 259.928 184.562 260.897" stroke="white" stroke-linecap="round" stroke-linejoin="round"/>
<path d="M177.886 251.36C181.632 254.662 184.688 258.558 188.518 261.692C189.134 262.196 190.294 263.395 190.602 263.935C191.34 265.226 192.353 266.469 192.827 267.891" stroke="white" stroke-linecap="round" stroke-linejoin="round"/>
<path d="M180.747 274.884C184.917 274.884 189.408 275.068 192.809 272.517C194.815 271.014 196.647 268.988 198.867 267.82C199.817 267.32 200.31 266.378 201.092 265.683C202.249 264.654 203.409 263.672 204.412 262.469C205.87 260.719 207.079 258.978 208.88 257.577C209.866 256.81 211.09 255.837 212.289 255.422C213.884 254.87 214.92 255.119 216.421 255.175C218.774 255.262 221.437 255.948 221.437 258.831C221.437 262.611 221.404 267.002 219.671 270.469C218.452 272.906 217.28 275.319 216.033 277.745C215.238 279.289 214.146 280.39 214.125 282.195C214.016 291.581 213.126 301.086 210.929 310.24C210.269 312.987 209.613 315.729 208.792 318.434C208.044 320.898 206.452 322.887 205.542 325.286C204.272 328.636 202.853 331.703 202.187 335.317C201.972 336.484 202.141 338.641 200.774 339.097" stroke="white" stroke-linecap="round" stroke-linejoin="round"/>
<path d="M263.398 267.891C258.966 266.326 255.567 263.005 250.929 262.098C249.762 261.87 248.544 261.449 247.751 262.486C246.594 263.999 246.174 265.677 245.437 267.396C244.26 270.142 244.019 273.901 246.232 276.156C248.468 278.434 251.209 280.219 254.108 281.56C257.371 283.068 260.211 284.971 263.08 287.123C265.252 288.751 267.488 290.882 270.038 291.873C271.133 292.299 272.02 292.867 272.864 293.71C274.199 295.045 275.389 296.773 276.431 298.337C277.2 299.49 277.546 301.112 278.515 302.081C283.143 306.709 287.93 310.977 293.138 314.938C294.587 316.04 295.52 317.497 296.776 318.752C297.143 319.12 297.462 319.462 297.659 319.953C298.04 320.906 301.168 318.726 301.756 318.452C306.348 316.313 311.212 317.209 315.831 315.715C318.139 314.968 320.383 312.799 321.871 310.964C324.362 307.892 326.767 303.857 330.048 301.586C330.587 301.213 333.472 298.448 332.449 298.408C330.467 298.328 328.152 297.232 326.498 296.165C324.582 294.929 321.801 292.947 320.652 290.937C320.04 289.866 319.33 287.344 318.321 286.646C316.41 285.323 317.239 282.636 316.732 280.465C315.896 276.89 314.99 273.357 314.1 269.798C313.57 267.674 313.276 265.581 312.97 263.44C312.776 262.085 312.756 260.264 312.034 259.06C311.283 257.809 310.602 256.327 309.738 255.175C308.047 252.92 305.204 251.503 303.292 249.436C299.527 245.365 296.583 240.976 293.915 236.173C291.997 232.722 291.021 229.431 288.122 226.636C285.284 223.9 282.02 222.343 278.215 221.497C274.663 220.708 271.021 220.192 267.601 218.936C262.553 217.082 258.442 219.224 253.526 220.208C250.958 220.721 248.162 221.099 246.232 222.927C244.662 224.415 243.753 228.789 244.837 230.716C246.407 233.508 250.525 233.521 253.155 232.676C255.637 231.878 258.718 231.969 261.314 231.969C264.006 231.969 267.15 233.631 269.579 234.672C271.656 235.562 273.683 236.556 275.619 237.621C280.125 240.1 282.224 244.145 284.767 248.252C286.654 251.301 288.047 254.647 289.923 257.718C291.473 260.254 290.348 262.11 289.535 264.641C288.724 267.165 288.05 269.822 286.78 272.182C285.915 273.789 286.035 275.895 285.014 277.427" stroke="white" stroke-linecap="round" stroke-linejoin="round"/>
<path d="M288.828 279.97C285.425 278.908 282.144 277.415 278.691 276.544C276.24 275.926 274.203 274.497 271.822 273.789C269.757 273.175 268.137 271.905 266.188 271.069C264.894 270.515 263.468 270.298 262.603 269.144C261.6 267.807 260.462 266.863 259.265 265.665" stroke="white" stroke-linecap="round" stroke-linejoin="round"/>
<path d="M258.312 269.48C255.834 268.443 253.616 267.344 251 266.69C250.43 266.547 248.513 265.833 247.998 266.495C246.707 268.155 247.209 274.113 248.775 275.343C249.967 276.28 251.459 277.427 253.049 277.427C254.271 277.427 255.026 275.274 255.38 274.319C255.823 273.124 256.659 272.148 257.04 270.91C257.242 270.253 257.405 268.821 257.994 268.526" stroke="white" stroke-linecap="round" stroke-linejoin="round"/>
<path d="M215.397 258.672C216.897 259.915 217.733 261.262 218.876 262.787C219.328 263.389 219.434 264.15 220.165 264.394" stroke="white" stroke-linecap="round" stroke-linejoin="round"/>
<path d="M215.397 258.036C215.89 256.279 215.845 254.857 217.781 254.857C218.254 254.857 219.348 254.267 219.529 253.904" stroke="white" stroke-linecap="round" stroke-linejoin="round"/>
<path d="M177.569 211.625C179.037 214.25 179.733 217.415 181.383 219.89" stroke="white" stroke-linecap="round" stroke-linejoin="round"/>
<path d="M236.695 208.128C241.045 208.624 244.902 209.595 249.075 210.812C250.749 211.301 251.848 211.047 253.473 210.989C254.917 210.937 256.368 210.671 257.799 210.671C261.195 210.671 264.008 211.689 267.195 212.72C274.41 215.054 283.239 215.069 287.08 222.751C289.366 227.322 292.674 231.046 295.027 235.572C295.458 236.401 296.389 236.954 297.094 237.532C297.979 238.26 298.38 239.133 299.142 239.917C300.392 241.203 301.816 242.97 303.204 244.049C305.518 245.849 306.777 248.964 308.855 251.043C310.281 252.468 310.445 254.229 310.445 256.129" stroke="white" stroke-linecap="round" stroke-linejoin="round"/>
<path d="M259.265 236.102C255.744 235.447 249.258 234.653 247.821 238.963" stroke="white" stroke-linecap="round" stroke-linejoin="round"/>
<path d="M240.51 244.685C241.006 247.786 240.687 249.708 243.689 251.043C245.097 251.668 248.094 252.313 249.428 251.201C252.661 248.508 255.132 243.991 255.132 239.599" stroke="white" stroke-linecap="round" stroke-linejoin="round"/>
<path d="M253.543 245.956C255.772 245.956 260.948 245.937 262.444 248.182" stroke="white" stroke-linecap="round" stroke-linejoin="round"/>
<path d="M262.762 245.321C262.762 247.361 262.439 249.27 263.715 250.972C264.27 251.711 264.68 252.529 265.234 253.268C265.618 253.78 266.228 253.944 266.576 254.38C266.989 254.897 267.868 254.782 268.325 255.493C268.77 256.185 269.69 257.368 270.391 257.718" stroke="white" stroke-linecap="round" stroke-linejoin="round"/>
<path d="M270.391 253.268C270.391 256.543 270.832 258.918 272.298 261.851C273.177 263.608 273.57 264.065 273.57 266.054C273.57 268.842 273.888 271.717 273.888 274.566" stroke="white" stroke-linecap="round" stroke-linejoin="round"/>
<path d="M257.676 233.241C262.318 238.768 267.055 243.997 273.888 246.274" stroke="white" stroke-linecap="round" stroke-linejoin="round"/>
<path d="M200.456 263.44C200.456 262.194 200.767 260.476 200.386 259.237C200.13 258.405 199.848 257.097 200.297 256.288C200.719 255.528 200.265 253.999 201.092 253.586" stroke="white" stroke-linecap="round" stroke-linejoin="round"/>
<path d="M66.9637 52.3058C65.7472 48.6565 64.6594 44.6412 63.0096 41.1583C61.8712 38.7549 62.3006 37.2996 65.2487 37.2996C67.919 37.2996 70.6985 40.4246 72.1087 42.5399C73.7597 45.0163 74.8832 47.8803 75.9675 50.5908" stroke="white" stroke-linecap="round" stroke-linejoin="round"/>
<path d="M63.9624 44.1595C66.1152 43.2669 66.5385 42.5472 67.8212 40.9439C68.4052 40.2139 68.5444 39.3451 69.5362 39.0145" stroke="white" stroke-linecap="round" stroke-linejoin="round"/>
<path d="M66.5349 36.0133C69.2519 32.5611 72.3284 27.0095 77.2537 27.0095C79.0152 27.0095 81.3796 27.4344 83.0418 26.7951C85.1079 26.0005 86.9528 25.0601 88.83 23.913C89.378 23.578 89.582 22.5298 89.878 22.0074C90.9843 20.0552 92.114 17.8656 93.7844 16.3384C96.9685 13.4272 100.978 11.4317 104.051 8.35882C107.112 5.29727 112.885 5.35537 116.032 7.93007C118.434 9.89574 118.618 10.717 122.034 10.717C125.03 10.717 127.108 10.687 128.704 13.48C129.706 15.2344 131.289 16.8192 133.23 17.172C136.213 17.7145 138.623 20.7812 139.423 23.5795C140.173 26.2043 141.119 27.2959 143.71 27.9623C147.059 28.8233 145.934 30.5385 147.235 33.012C148.39 35.2057 151.428 37.7455 151.428 40.3008C151.428 42.3579 151.838 44.8637 150.904 46.732C149.682 49.1754 147.321 52.0203 149.808 54.783C152.275 57.5246 149.699 60.4721 147.998 63.0246C146.777 64.855 145.067 66.665 143.258 67.9314C141.125 69.4243 139.043 69.2757 136.755 69.9799C135.732 70.2945 134.653 70.9208 133.634 71.147C132.84 71.3237 132.761 69.6238 132.563 69.0271" stroke="white" stroke-linecap="round" stroke-linejoin="round"/>
<path d="M147.998 51.8771C146.476 55.3465 144.646 58.5284 142.757 61.7383C142.525 62.1334 141.885 62.3574 141.471 62.5006C140.266 62.9179 139.642 63.7284 138.66 64.549C136.573 66.2941 133.946 66.9673 131.61 68.2649C130.361 68.9585 125.703 70.5626 125.703 67.7409C125.703 65.5971 125.703 63.4534 125.703 61.3096" stroke="white" stroke-linecap="round" stroke-linejoin="round"/>
<path d="M118.843 58.3083C122.016 59.6532 128.06 63.0756 130.848 59.2611C132.047 57.6199 133.423 56.1046 134.611 54.4495C136.124 52.3421 136.907 50.1048 138.779 48.2327C144.028 42.9842 143.71 35.7531 143.71 28.7245" stroke="white" stroke-linecap="round" stroke-linejoin="round"/>
<path d="M123.559 48.8758C124.971 46.1064 125.928 43.9343 128.061 41.8014C129.316 40.5462 129.346 38.4271 128.608 36.8707C128.053 35.6987 126.751 33.0886 125.059 33.4646C123.529 33.8047 122.742 38.891 122.272 40.3007" stroke="white" stroke-linecap="round" stroke-linejoin="round"/>
<path d="M119.271 19.7207C119.271 25.0859 119.359 29.8907 120.891 35.0605C121.64 37.5894 122.395 40.0497 123.225 42.5398C124.66 46.8427 124.416 50.5922 124.416 55.2118C124.416 58.3901 118.798 56.3207 117.556 54.9021C116.625 53.8372 115.944 52.8868 115.413 51.5436C112.992 45.4216 108.124 40.5638 108.124 33.5361C108.124 30.6997 108.175 27.2879 106.647 24.7705C105.274 22.5088 105.123 20.5714 105.123 18.0057" stroke="white" stroke-linecap="round" stroke-linejoin="round"/>
<path d="M120.129 26.5807C125.107 27.863 129.133 30.8221 129.133 36.442" stroke="white" stroke-linecap="round" stroke-linejoin="round"/>
<path d="M94.7471 27.5565C95.9758 28.9169 97.5912 30.3165 98.3843 32.0121C98.9446 33.2101 99.8609 34.1381 100.726 35.1265C101.995 36.5773 103.672 37.6352 105.181 38.8092C107.229 40.4017 109.531 41.7796 110.705 44.1286" stroke="white" stroke-linecap="round" stroke-linejoin="round"/>
<path d="M117.866 55.7905C121.409 57.3089 119.541 61.5072 116.4 62.0306C114.12 62.4107 112.214 62.1777 110.251 61.019C109.191 60.3934 108.479 59.6505 107.727 58.7003C107.383 58.2644 107.15 57.6061 106.614 57.4273" stroke="white" stroke-linecap="round" stroke-linejoin="round"/>
<path d="M92.0874 50.6757C88.521 48.4372 84.5091 46.5754 81.494 43.5603C80.9399 43.0063 79.6402 41.9054 79.6072 41.0143C79.5898 40.5452 79.8368 39.2309 79.4026 39.0138" stroke="white" stroke-linecap="round" stroke-linejoin="round"/>
<path d="M107.841 56.4043C109.814 57.7739 111.765 59.2489 113.82 60.4962C114.426 60.8642 116.177 61.3114 116.798 60.9054C118.191 59.9942 118.275 58.6855 118.275 57.2227" stroke="white" stroke-linecap="round" stroke-linejoin="round"/>
<path d="M108.046 55.7905C109.421 54.3054 110.751 52.8001 112.319 51.5168C112.526 51.348 112.887 50.9144 113.161 50.8803C113.573 50.8287 113.653 50.225 113.979 50.0619" stroke="white" stroke-linecap="round" stroke-linejoin="round"/>
<path d="M124.208 32.876C124.237 35.0371 124.833 37.1784 127.38 37.5703C128.22 37.6995 128.612 37.4097 129.323 37.1725" stroke="white" stroke-linecap="round" stroke-linejoin="round"/>
<path d="M20.7742 110.154C28.8844 122.094 37.3923 133.095 46.64 144.114C50.258 148.425 53.2667 153.143 56.682 157.534C57.2283 158.236 57.6177 159.457 58.2949 159.999C58.9642 160.534 59.7829 160.192 60.5771 160.12C64.3597 159.781 68.2233 159.766 72.019 159.573C78.9827 159.218 85.9315 158.931 92.8942 158.477C100.498 157.981 108.006 156.639 115.595 156.164C122.309 155.745 128.822 153.49 135.223 151.508C137.807 150.709 141.014 148.546 143.713 148.496C155.262 148.282 167.299 145.573 176.882 139.184" stroke="white" stroke-linecap="round" stroke-linejoin="round"/>
<path d="M202.626 132.611C215.352 130.365 228.018 127.475 240.969 127.134C243.541 127.066 245.739 126.081 247.907 124.821C248.825 124.287 255.685 121.283 255.21 120.987C253.703 120.045 252.746 118.097 251.497 116.848C250.165 115.516 248.443 114.646 247.116 113.318C246.084 112.287 244.518 109.606 242.916 109.606C238.468 109.606 234.055 110.701 229.588 110.701C228.732 110.701 228.046 110.929 227.701 110.032C226.942 108.059 225.587 107.324 224.293 105.772C221.427 102.333 219.159 100.823 217.659 96.46C215.857 91.217 210.077 86.6695 205.548 83.7705C201.034 80.8821 196.981 77.4115 192.463 74.5196C189.114 72.3768 184.84 70.9901 182.664 67.4294C180.181 63.3657 176.793 58.8172 175.817 54.1008C175.075 50.5132 173.168 45.8679 173.626 42.2026C174.205 37.5685 177.406 38.6901 180.899 37.0598C183.554 35.8207 184.857 34.1137 187.837 33.3473C194.666 31.5914 202.278 27.1094 209.625 29.2088C211.868 29.8495 214.682 30.5655 216.989 30.7303C219.604 30.9171 220.49 31.9296 222.467 32.7996C225.372 34.078 227.484 36.8557 230.135 38.5205C232.341 39.9057 235.505 40.1098 237.378 41.9287C241.735 46.1617 244.008 51.8025 247.663 56.5961C251.113 61.1199 254.928 65.2284 258.466 69.6508C263.363 75.7722 264.537 83.6577 266.165 90.9825C266.724 93.4979 269.336 99.3075 267.504 101.664C263.802 106.424 257.071 106.006 251.406 107.658C249.458 108.226 247.17 107.458 245.32 108.267C242.183 109.64 240.11 110.701 236.587 110.701" stroke="white" stroke-linecap="round" stroke-linejoin="round"/>
<path d="M186.742 34.0167C196.125 42.9271 203.26 53.0292 211.634 62.743C219.289 71.6233 227.488 81.1147 233.3 91.2867C235.712 95.508 238.812 97.0077 243.707 97.0077C246.243 97.0077 248.988 97.5554 251.68 97.5554C254.888 97.5554 256.309 96.6821 259.044 95.2427C260.435 94.5106 262.255 94.2144 263.426 93.1734C264.197 92.488 264.542 92.2097 265.07 91.2867C265.468 90.589 266.303 91.2538 266.713 90.4347" stroke="white" stroke-linecap="round" stroke-linejoin="round"/>
<path d="M224.536 75.0978C230.808 75.4992 237.946 76.4761 244.255 75.5239C247.019 75.1066 249.687 74.157 252.471 74.0023C253.88 73.9241 252.678 70.0102 252.35 69.3769C249.879 64.6115 244.886 61.8613 241.516 57.8438C237.02 52.4826 230.775 48.5691 226.727 42.9025C225.202 40.7671 220.718 35.66 217.963 35.66C213.412 35.66 207.673 37.0474 203.448 38.6726C202.435 39.0623 199.229 38.8281 199.431 40.6506C199.83 44.2437 203.4 48.6767 205.365 51.5447C207.125 54.1135 209.42 56.2014 211.268 58.6654C213.336 61.4221 214.616 64.8622 216.898 67.4294C218.739 69.4999 221.784 76.7411 225.084 76.7411" stroke="white" stroke-linecap="round" stroke-linejoin="round"/>
<path d="M251.376 117.274C263.421 113.203 276.792 114.344 289.17 111.249C295.599 109.642 301.734 107.073 308.159 105.528C313.081 104.344 317.903 102.941 322.826 101.816C324.489 101.436 326.447 100.484 328.06 100.294C328.329 100.263 329.397 99.5871 328.912 99.3204C326.22 97.8397 324.244 96.2984 321.913 94.2689C318.539 91.3302 314.659 88.663 311.506 85.6267C309.601 83.792 303.412 80.8278 303.412 78.3843" stroke="white" stroke-linecap="round" stroke-linejoin="round"/>
<path d="M237.682 44.4239C240.834 38.9405 244.157 33.545 247.237 28.0219C248.149 26.3878 249.728 24.523 250.28 22.727C251.143 19.9238 252.217 17.2276 253.323 14.5108C255.131 10.0738 256.789 5.49271 258.375 0.969311C258.98 -0.757758 260.12 -2.07579 260.688 -3.77783" stroke="white" stroke-linecap="round" stroke-linejoin="round"/>
<path d="M266.165 84.9572C269.036 74.6634 272.676 64.7997 276.146 54.7094C277.4 51.0635 278.069 47.2375 279.433 43.6327C281.752 37.5035 285.127 31.8741 287.801 25.9222C291.303 18.1273 293.887 10.0086 297.143 2.12568C300.209 -5.29602 302.228 -13.6124 308.342 -19.1147" stroke="white" stroke-linecap="round" stroke-linejoin="round"/>
<path d="M266.165 88.7914C277.896 85.985 290.425 84.3212 301.89 80.4535C305.746 79.1526 309.667 76.741 313.819 76.741" stroke="white" stroke-linecap="round" stroke-linejoin="round"/>
<path d="M304.507 79.4798C311.979 58.7513 321.36 38.8011 328.486 17.9495C329.507 14.9643 330.596 12.0068 331.651 9.03343C332.565 6.45773 334.342 4.21593 335.181 1.69971" stroke="white" stroke-linecap="round" stroke-linejoin="round"/>
<path d="M305.055 82.7662C311.916 82.2174 318.771 82.0205 325.565 80.8491C328.21 80.3931 330.909 78.932 333.538 78.932" stroke="white" stroke-linecap="round" stroke-linejoin="round"/>
<path d="M323.678 33.469C327.691 33.5036 332.312 33.1735 336.246 34.321C337.39 34.6547 338.357 35.1122 339.563 35.1122" stroke="white" stroke-linecap="round" stroke-linejoin="round"/>
<path d="M308.342 86.6005C314.704 73.8748 319.531 60.5671 326.843 48.3799C327.944 46.545 328.951 44.7239 329.825 42.7807C330.616 41.0241 330.294 38.8832 331.347 37.3032" stroke="white" stroke-linecap="round" stroke-linejoin="round"/>
<path d="M191.671 31.278C192.989 23.0776 195.318 15.273 197.027 7.29887C197.633 4.47096 198.244 1.93095 198.244 -1.03906" stroke="white" stroke-linecap="round" stroke-linejoin="round"/>
<path d="M81.5742 23.0618C81.7393 12.8259 84.5214 2.97935 85.9562 -7.06433" stroke="white" stroke-linecap="round" stroke-linejoin="round"/>
<path d="M64.5317 160.302C62.492 179 56.4312 198.28 56.0384 217.134C55.8097 228.109 54.3051 238.638 52.9976 249.534C51.5792 261.354 51.167 273.263 49.6422 285.08C48.5217 293.764 48.3642 301.716 45.448 310.141C44.1718 313.828 42.1273 317.451 41.1489 321.256C40.3029 324.546 41.0208 328.159 39.0518 331.112" stroke="white" stroke-linecap="round" stroke-linejoin="round"/>
<path d="M149.534 267.58C143.676 270.509 138.549 274.65 132.526 277.338C128.292 279.227 123.613 280.74 119.234 282.285C114.057 284.112 108.714 285.594 103.663 287.78C100.278 289.245 97.7191 291.344 94.7481 293.411C92.3096 295.108 91.2598 295.778 91.2598 298.997C91.2598 302.793 91.1833 306.226 93.403 309.53C96.3232 313.878 98.0074 318.381 100.083 323.164C101.485 326.395 102.898 329.718 104.711 332.74C105.9 334.721 106.751 337.207 108.086 338.987" stroke="white" stroke-linecap="round" stroke-linejoin="round"/>
<path d="M319.433 290.561C324.495 287.749 331.056 285.532 335.369 281.579C337.189 279.91 338.305 278.411 337.49 276.107C333.019 263.46 326.538 251.816 316.332 243.048C312.531 239.783 308.511 237.172 304.454 234.293C300.266 231.321 298.131 226.469 294.4 223.122C293.128 221.981 286.289 216.811 285.371 219.565" stroke="white" stroke-linecap="round" stroke-linejoin="round"/>
<path d="M284.961 217.103C290.752 215.141 296.469 212.937 302.014 210.354C305.325 208.812 308.199 206.624 311.841 206C315.244 205.416 318.578 204.237 321.986 203.651C328.153 202.591 334.789 201.012 340.362 198.225" stroke="white" stroke-linecap="round" stroke-linejoin="round"/>
<path d="M321.485 101.785C324.072 100.517 326.828 98.7953 329.761 98.502C331.901 98.288 333.992 97.7993 336.076 97.2709C337 97.0366 340.66 95.4028 341.183 96.4501" stroke="white" stroke-linecap="round" stroke-linejoin="round"/>
<path d="M151.396 44.399C156.662 44.7654 163.222 45.6721 168.444 44.2215C169.848 43.8315 172.055 43.3335 173.417 43.3335" stroke="white" stroke-linecap="round" stroke-linejoin="round"/>
<path d="M34.895 36.5851C33.9069 22.2579 34.1846 7.88632 34.1846 -6.39221" stroke="white" stroke-linecap="round" stroke-linejoin="round"/>
<path d="M166.985 337.442C162.914 317.924 158.245 298.645 152.739 279.68C151.493 275.387 151.321 271.024 150.539 266.722C149.503 261.026 152.154 253.55 153.705 247.942C155.062 243.035 156.13 238.165 157.917 233.401C160.379 226.834 163.489 220.398 166.878 214.299C169.655 209.3 175.358 206.617 177.233 200.992C178.197 198.102 175.859 192.531 175.194 189.724C174.091 185.066 172.911 180.849 171.116 176.444C168.901 171.006 167.121 165.718 166.26 159.864C165.783 156.615 165.008 153.335 163.846 150.313C162.297 146.286 167.168 146.4 170.097 144.76C175.19 141.907 180.137 138.999 185.443 136.55C189.945 134.472 194.286 133.686 199.072 132.472C200.85 132.021 202.932 130.823 204.759 130.755C206.968 130.673 206.314 131.726 207.55 133.921C213.182 143.921 214.547 155.941 218.442 166.652C219.703 170.121 221.234 172.987 223.003 176.203C225.341 180.454 226.508 185.183 228.825 189.429C231.295 193.958 232.982 198.527 235.103 203.192C236.533 206.34 238.44 209.201 239.905 212.341C244.239 221.628 246.89 232.571 249.107 242.55C249.487 244.26 248.169 244.151 246.451 244.24C243.289 244.403 240.624 245.395 238.349 247.513C236.143 249.566 233.339 252.015 230.837 253.683C228.593 255.179 225.933 255.658 223.486 256.688C221.053 257.713 221.015 255.77 219.622 253.791C217.64 250.973 215.112 254.08 212.835 255.105C210.628 256.098 205.683 257.076 204.169 258.969C203.11 260.293 202.318 256.77 202.238 256.286C201.814 253.742 201.125 250.97 200.064 248.613C198.043 244.12 196.397 240.067 193.599 235.869C188.966 228.921 185.058 220.623 182.331 212.743C181.512 210.378 180.647 207.791 179.433 205.607C178.328 203.616 177.126 202.775 177.126 200.295" stroke="white" stroke-linecap="round" stroke-linejoin="round"/>
<path d="M-3.78027 129.481C0.588599 126.287 4.29655 122.842 8.36767 119.381C9.45037 118.461 10.9865 116.773 12.2979 116.19C13.65 115.589 14.4111 114.388 15.9423 113.951C18.5384 113.209 21.2913 111.891 23.6598 110.616C26.3728 109.155 28.7727 108.528 31.8061 108.472C36.2451 108.39 41.3855 107.143 45.6928 106.09C52.6705 104.385 59.1308 101.135 66.0585 99.2302C70.5683 97.99 75.7524 97.9178 79.6118 94.9665C81.9542 93.1753 84.413 92.191 86.3527 89.8453C87.0831 88.9621 87.5925 87.8433 88.4012 87.0346C89.1098 86.326 90.6195 86.4063 91.5215 86.1056C94.1414 85.2324 97.4973 84.4494 99.9775 83.1758C103.457 81.389 106.072 77.2689 107.886 74.0053C108.289 73.2796 111.366 69.3039 110.696 68.9318C109.292 68.1515 108.2 67.3032 106.647 66.8595C105.047 66.4025 103.471 65.5395 101.597 66.1211C98.2649 67.1553 95.0385 67.7503 91.6168 68.3839C87.0156 69.236 93.6602 67.3518 94.9277 66.8833C97.3633 65.9832 102.626 66.4353 103.503 63.4533C103.806 62.4216 104.489 61.6056 104.932 60.6426C105.4 59.6242 105.122 58.1384 105.122 57.0459C105.122 54.3193 102.373 52.6884 100.168 51.5436C96.8545 49.8231 92.4874 51.0195 88.8299 51.0195C84.3925 51.0195 79.7469 50.1094 75.3481 51.1148C71.2639 52.0483 67.1281 53.7769 63.1049 51.877C60.4455 50.6212 58.9374 48.0583 56.2449 47.1608" stroke="white" stroke-linecap="round" stroke-linejoin="round"/>
<path d="M-5.92407 71.1709C-0.44885 68.3781 4.30999 65.2176 9.32041 61.7622C11.8505 60.0173 14.352 58.5647 16.5615 56.3551C20.4249 52.4918 22.935 47.4257 26.661 43.4926C28.3201 41.7414 29.5917 39.4676 31.9013 38.4905C33.231 37.928 34.1359 36.9534 35.6648 36.8708C37.209 36.7873 38.9986 36.3766 40.4763 35.918C43.5466 34.9652 47.414 35.5845 50.6234 35.5845C52.3719 35.5845 53.6668 35.9334 55.4111 35.5845C57.0451 35.2577 58.6786 35.0121 60.318 34.727C64.5798 33.9858 68.4954 36.0756 70.3936 39.872" stroke="white" stroke-linecap="round" stroke-linejoin="round"/>
<path d="M229.149 332.421C239.127 329.949 249.721 327.85 258.605 322.389C262.996 319.689 266.652 315.846 271.008 313.041C274.168 311.007 277.019 309.175 280.538 307.798C281.276 307.509 283.421 307.183 283.73 306.566" stroke="white" stroke-linecap="round" stroke-linejoin="round"/>
<path d="M-5.95117 57.1857C1.78177 55.2704 10.4262 52.2131 18.5566 52.2131" stroke="white" stroke-linecap="round" stroke-linejoin="round"/>
<path d="M36.3157 -1.41968C37.9738 1.944 39.6216 5.45125 40.499 9.11746C41.0789 11.541 41.3128 14.036 42.0776 16.4185C43.1932 19.8942 44.2663 23.571 44.8204 27.1727C45.0298 28.5339 45.9057 30.1076 45.9057 31.4151C45.9057 32.0493 46.5395 34.2381 46.9712 34.4539" stroke="white" stroke-linecap="round" stroke-linejoin="round"/>
</g>
<defs>
<clipPath id="clip0">
<rect width="330" height="330" fill="white"/>
</clipPath>
</defs>
</svg>
