<svg width="330" height="330" viewBox="0 0 330 330" fill="none" xmlns="http://www.w3.org/2000/svg">
<g clip-path="url(#clip0)">
<rect width="330" height="330" fill="#444444"/>
<path d="M255.862 122.33C250.159 121.298 244.465 120.27 238.797 119.059C234.947 118.237 230.859 116.933 226.885 116.933C225.236 116.933 223.585 116.645 222.223 117.423C220.364 118.486 220.226 124.962 220.07 126.91C219.852 129.632 219.552 132.223 219.552 135.088C219.552 136.851 219.552 138.613 219.552 140.376C219.552 141.998 217.485 141.443 216.281 141.494C210.525 141.739 204.769 142.939 198.998 142.939C196.777 142.939 195.776 143.393 196.027 140.758C196.21 138.838 196.981 137.779 196.981 135.715C196.981 133.161 196.981 130.608 196.981 128.055C196.981 127.037 197.891 124.547 196.981 125.002C195.848 125.568 194.778 127.45 193.519 128.191C191.68 129.273 189.717 130.224 187.658 130.781C183.364 131.941 178.809 129.65 174.791 132.144C174.437 132.364 170.66 134.311 172.447 133.507C175.043 132.339 177.726 131.29 180.298 130.072C186.043 127.351 193.326 125.201 199.434 127.237" stroke="#E5E5E5" stroke-linecap="round" stroke-linejoin="round"/>
<path d="M255.371 123.312C255.415 126.391 255.432 129.407 256.952 132.144C257.435 133.013 259.395 132.634 260.169 132.634C262.01 132.634 264.287 132.728 266.057 133.234C267.861 133.75 267.614 136.183 267.638 137.705C267.695 141.21 267.638 144.722 267.638 148.227C267.638 151.396 268.502 154.637 267.638 157.659" stroke="#E5E5E5" stroke-linecap="round" stroke-linejoin="round"/>
<path d="M246.539 81.6042C240.869 81.5255 235.254 81.0578 229.638 80.3503C226.841 79.9979 224.47 80.6229 221.787 80.6229C220.113 80.6229 222.246 85.9671 222.496 86.8926C223.143 89.2885 223.477 92.1763 223.477 94.6616C223.477 100.049 224.067 105.374 224.459 110.663C224.621 112.849 224.949 114.623 224.949 116.933" stroke="#E5E5E5" stroke-linecap="round" stroke-linejoin="round"/>
<path d="M195.509 85.5297C195.69 97.2916 197.471 109.121 197.471 120.886C197.471 122.714 198.274 128.553 196.981 129.2" stroke="#E5E5E5" stroke-linecap="round" stroke-linejoin="round"/>
<path d="M196.49 74.7348C202.552 72.9023 209.346 69.3719 215.872 69.8553C218.24 70.0307 220.374 70.8094 222.769 70.8094C223.606 70.8094 228.051 70.1538 228.275 70.4278C229.661 72.1211 227.893 76.924 227.893 79.1509" stroke="#E5E5E5" stroke-linecap="round" stroke-linejoin="round"/>
<path d="M207.776 48.2383C212.552 48.2383 217.26 48.729 222.005 48.729" stroke="#E5E5E5" stroke-linecap="round" stroke-linejoin="round"/>
<path d="M217.589 43.8223C217.589 36.4877 217.043 29.9414 216.144 22.7505C216.059 22.0662 217.439 20.5317 216.799 20.7878C215.598 21.2681 214.553 22.4814 214.154 23.6773C213.314 26.1991 213.799 17.88 212.192 21.4966C211.424 23.2246 214.047 20.5628 214.372 20.0518C215.408 18.4245 210.39 18.6722 209.52 19.7792C207.239 22.6827 213.247 20.2699 213.282 20.2699C214.809 20.2699 218.193 21.8695 217.862 20.3789C217.741 19.8359 213.269 18.6882 213.173 20.2699C213.077 21.8513 214.611 23.1772 215.517 21.2512C216.041 20.1382 213.592 22.1731 213.282 22.7233C212.857 23.4797 213.378 20.658 214.154 20.2699" stroke="#E5E5E5" stroke-linecap="round" stroke-linejoin="round"/>
<path d="M219.061 20.7605C226.508 23.0716 227.875 28.5011 230.101 35.1809C231.086 38.1352 233.562 40.2971 236.726 40.3875C238.404 40.4355 243.021 38.5797 243.104 41.5869C243.179 44.2565 243.173 46.9338 242.559 49.5468C241.783 52.8503 240.783 59.0069 236.753 60.0145C233.705 60.7765 232.967 59.2984 230.592 57.2886C228.267 55.3208 226.498 52.8264 224.949 50.3101C223.352 47.7136 222.169 44.8035 219.552 42.8409" stroke="#E5E5E5" stroke-linecap="round" stroke-linejoin="round"/>
<path d="M186.186 154.224C186.186 160.458 186.186 166.691 186.186 172.924C186.186 173.552 185.685 177.818 186.404 178.158C189.015 179.395 193.572 177.415 196.272 177.313C200.786 177.143 205.329 177.286 209.847 177.286C215.905 177.286 222.281 177.431 228.111 175.596C230.081 174.976 232.224 174.171 234.272 173.878C236.949 173.496 234.694 154.718 234.517 151.962C234.48 151.382 234.383 143.485 232.691 144.029C228.836 145.268 225.543 147.625 221.487 148.554C217.215 149.533 212.741 149.74 208.375 149.808C205.924 149.846 203.542 150.789 201.124 150.789C196.215 150.789 191.336 153.733 186.677 153.733" stroke="#E5E5E5" stroke-linecap="round" stroke-linejoin="round"/>
<path d="M186.677 269.042C199.392 268.837 212.523 266.45 225.195 268.797C227.07 269.144 228.96 268.952 230.838 269.288C232.022 269.499 233.547 270.226 234.763 270.024C236.358 269.758 234.694 244.983 234.518 242.518C233.921 234.165 233.782 225.893 233.782 217.521C233.782 212.512 233.006 207.585 232.773 202.583C232.594 198.742 232.523 194.866 232.31 191.025C232.23 189.59 231.778 186.633 231.083 185.382C230.253 183.888 231.285 181.946 228.82 182.22C222.589 182.912 216.384 184.566 210.066 184.646C207.704 184.676 205.34 184.646 202.978 184.646C200.656 184.646 198.281 185.299 196 184.891C193.996 184.534 189.172 183.486 189.13 186.227C188.959 197.542 189.883 209.031 191.311 220.247C192.415 228.925 191.584 238.108 191.584 246.853C191.584 252.375 191.093 257.879 191.093 263.372C191.093 264.571 190.111 265.687 190.111 267.079" stroke="#E5E5E5" stroke-linecap="round" stroke-linejoin="round"/>
<path d="M202.378 277.384C203.878 262.935 207.474 248.669 208.784 234.259C208.9 232.986 209.738 231.768 209.738 230.524C209.738 228.958 210.908 233.588 210.992 233.986C211.936 238.436 213.145 242.764 213.909 247.262C214.66 251.686 214.374 256.086 214.918 260.51C215.426 264.65 216.608 268.46 216.608 272.668C216.608 274.976 216.608 277.284 216.608 279.592C216.608 282.135 216.319 284.571 216.117 287.088C216.052 287.904 202.025 286.242 200.034 285.834C198.585 285.538 197.02 285.368 196.981 283.653C196.914 280.694 196.981 277.727 196.981 274.767C196.981 272.763 199.238 269.042 201.397 269.042" stroke="#E5E5E5" stroke-linecap="round" stroke-linejoin="round"/>
<path d="M184.714 274.44C195.656 274.021 206.42 273.016 217.317 272.095C222.682 271.642 227.541 271.429 232.8 272.368C234.958 272.753 238.117 274.44 240.16 274.44C241.159 274.44 241.119 271.336 242.614 270.896C243.937 270.507 245.008 269.586 246.43 269.533C246.963 269.513 247.931 269.732 248.393 269.424C249.408 268.747 248.406 271.874 248.611 273.077C248.883 274.676 248.931 276.154 248.993 277.765C249.048 279.207 263.479 278.356 264.803 278.365C269.639 278.398 273.701 278.932 277.942 280.928C278.787 281.325 278.131 278.489 279.142 277.983C281.149 276.98 286.315 277.259 288.138 278.365C290.079 279.544 290.356 281.821 289.61 284.144C288.923 286.281 288.737 281.078 288.737 280.928C288.737 277.62 288.737 274.313 288.737 271.005C288.737 269.772 288.358 258.598 290.318 258.738C295.974 259.142 297.152 265.511 297.46 269.86C297.83 275.082 296.778 280.003 296.588 285.126C296.517 287.034 299.138 286.205 300.513 286.216C305.917 286.258 311.35 286.703 316.651 287.797C322.537 289.012 327.895 292.088 333.879 293.085" stroke="#E5E5E5" stroke-linecap="round" stroke-linejoin="round"/>
<path d="M183.242 270.024C181.966 270.553 180.646 271.525 179.317 271.877C178.562 272.077 177.807 271.844 177.109 272.232C174.826 273.5 175.118 268.466 174.901 266.78C174.424 263.086 173.449 259.147 171.575 255.903C170.11 253.368 169.723 251.287 170.375 248.434C171.2 244.825 168.862 244.32 166.068 245.517C164.068 246.374 164.078 248.892 164.106 250.724C164.187 256.184 165.654 261.486 166.45 266.861C166.721 268.688 167.303 271.447 167.022 273.268C166.28 278.094 161.559 281.675 158 284.499C157.597 284.818 152.968 289.031 152.439 288.56C151.213 287.471 149.655 287.058 147.913 286.325C145.998 285.518 144.917 289.644 144.479 290.85C143.798 292.722 144.856 292.721 142.57 294.203C138.339 296.948 133.855 300.086 129.24 302.163C128.206 302.629 126.357 303.514 125.588 302.899C124.125 301.729 120.766 302.408 118.964 302.408C117.269 302.408 116.514 303.741 117.11 305.461C117.928 307.826 120.253 307.065 117.655 308.623C114.483 310.527 111.387 312.824 107.596 313.203C105.755 313.387 100.521 314.802 98.9549 313.094C98.107 312.169 97.8709 309.532 97.5647 308.378C96.677 305.032 95.5216 301.73 94.3208 298.483C92.0345 292.302 92.1464 284.226 88.2964 278.665C86.5065 276.08 84.2095 280.027 83.744 281.527C82.0373 287.026 82.2234 293.174 82.1629 298.864C82.0674 307.842 78.5614 316.297 78.2102 325.252C78.0465 329.427 77.7468 333.552 77.7468 337.737C77.7468 339.525 77.731 339.7 79.6005 339.7C82.6565 339.7 85.6831 337.708 88.5417 336.755" stroke="#E5E5E5" stroke-linecap="round" stroke-linejoin="round"/>
<path d="M182.751 269.533C186.1 269.589 189.234 270.514 192.565 270.514C193.488 270.514 195.08 270.147 195.509 271.005" stroke="#E5E5E5" stroke-linecap="round" stroke-linejoin="round"/>
<path d="M139.572 292.104C139.437 274.844 138.591 257.632 138.591 240.365C138.591 230.293 139.081 220.208 139.081 210.161C139.081 209.764 139.078 206.979 138.863 207.163C136.042 209.581 132.697 211.167 129.131 212.287C128.187 212.584 125.934 213.046 124.961 212.506C123.65 211.777 124.852 215.504 124.852 217.003C124.852 218.922 124.871 218.993 122.889 218.993C120.235 218.993 117.115 218.868 114.575 219.757C112.987 220.312 111.5 220.472 109.859 220.847C107.693 221.342 108.659 224.694 108.659 226.572C108.659 231.902 108.792 237.86 108.06 243.146C107.758 245.327 107.117 247.473 106.724 249.633C106.392 251.458 105.94 249.063 105.334 248.052C104.08 245.963 101.913 244.846 100.89 242.546C99.8064 240.107 100.318 236.818 100.318 234.204C100.318 230.831 100.597 227.274 100.291 223.9C100.225 223.179 100.178 220.099 99.7182 219.593C98.7071 218.481 95.5376 218.993 94.2662 218.993C90.651 218.993 90.9222 223.521 90.0137 226.354C89.6176 227.588 89.6754 228.881 89.0323 230.006C88.527 230.891 84.3299 230.279 83.4714 230.279C80.1528 230.279 78.6495 231.756 76.0022 233.441C74.6547 234.299 72.6029 234.798 71.1499 235.213C69.3272 235.734 70.3867 246.926 70.3867 248.407C70.3867 253.45 68.672 258.719 67.9606 263.699C67.7072 265.473 68.0624 265.834 65.8616 265.498C65.2376 265.403 61.5948 264.86 61.5545 264.136C61.4874 262.927 62.1423 259.992 60.9548 259.229C55.7692 255.895 48.1746 257.371 42.6908 258.629C40.0713 259.23 36.8493 258.692 34.7309 260.428C30.2285 264.119 27.5839 268.409 24.0451 272.913C23.1363 274.07 23.0373 273.765 21.8098 273.186C19.5739 272.13 16.6513 271.986 14.2316 271.986C10.9292 271.986 8.99289 272.662 6.32628 274.44C2.70316 276.855 -3.50723 280.466 -3.70531 285.616C-4.00637 293.444 -3.70531 301.335 -3.70531 309.169C-3.70531 313.769 -3.73237 318.847 -2.75122 323.262C-2.44253 324.651 -1.45481 324.719 -0.052501 324.87C7.35212 325.671 15.018 324.854 22.464 325.252C28.5086 325.575 35.3813 326.005 41.1642 328.032C43.5071 328.854 46.8537 329.67 48.3063 331.849" stroke="#E5E5E5" stroke-linecap="round" stroke-linejoin="round"/>
<path d="M273.036 186.609C287.756 187.243 302.942 187.074 317.36 190.534C322.055 191.661 326.498 192.421 331.208 193.233C332.668 193.485 343.158 195.529 343.693 194.46" stroke="#E5E5E5" stroke-linecap="round" stroke-linejoin="round"/>
<path d="M81.6723 337.246C92.6262 328.69 103.914 320.784 115.256 312.767C119.801 309.554 124.339 306.669 127.905 302.299C134.793 293.859 142.205 286.141 150.694 279.292C157.488 273.81 165.451 269.887 171.575 263.536C174.543 260.458 173.644 257.789 173.32 253.613C172.384 241.567 170.761 228.924 171.684 216.867C173.055 198.949 175.391 181.05 175.391 163.056C175.391 156.182 176.323 149.417 176.373 142.503C176.399 138.88 177.153 135.075 177.354 131.653C177.692 125.91 187.067 130.487 187.167 125.656C187.329 117.922 187.167 110.167 187.167 102.431C187.167 98.2199 186.687 93.6218 188.04 89.5641C188.863 87.0941 191.132 88.2102 193.328 87.4923C197.013 86.2877 195.954 84.6784 195.618 81.1136C195.532 80.1991 194.842 76.3125 196.109 75.8252C197.184 75.4115 198.786 75.7161 199.925 75.7161C202.681 75.7161 199.51 70.3963 201.124 69.4464C202.846 68.4339 205.74 70.1029 206.685 67.2656C207.207 65.7013 207.224 63.5535 207.394 61.9227C207.801 58.0136 208.666 54.141 208.757 50.201C208.816 47.6604 209.778 48.8029 211.102 47.1479C211.661 46.4487 211.211 44.0364 211.211 43.2225C211.211 40.7414 210.769 38.3248 210.72 35.8624C210.641 31.9197 211.701 28.1886 211.701 24.3043C211.701 21.4135 214.605 20.9855 217.099 20.3789C223.682 18.7775 228.539 31.2373 230.729 35.5353C231.256 36.5698 232.905 37.7484 233.182 38.7519C233.755 40.8296 232.241 44.5544 231.601 46.4937C230.972 48.3995 230.107 52.5949 227.894 53.5267C226 54.324 218.721 41.9217 218.68 41.9686C217.867 42.8831 218.571 46.9527 218.571 48.2383C218.571 50.3731 224.459 49.4841 224.459 51.9184C224.459 53.554 224.459 55.1896 224.459 56.8251C224.459 58.9263 224.969 61.0636 225.195 63.1494C225.396 65.0036 225.321 68.2178 225.985 70.0461C226.344 71.0314 229.697 71.8484 230.647 72.3087C232.638 73.2742 235.109 73.3889 236.944 74.4895C239.748 76.172 241.944 77.9378 244.113 80.4321C244.878 81.3118 246.975 82.4885 247.057 83.5124C247.465 88.6081 249.143 93.5045 249.429 98.6416C249.642 102.473 249.783 106.338 249.947 110.172C250.089 113.506 250.7 114.346 254.145 115.188C255.821 115.598 259.057 115.617 260.469 116.715C261.988 117.897 261.625 123.263 261.75 124.92C261.894 126.83 261.936 129.072 262.731 130.863C262.973 131.407 265.917 132.397 266.575 132.825C270.039 135.077 267.388 136.754 267.175 140.267C266.937 144.188 267.033 148.315 267.475 152.207C268.76 163.539 271.098 174.575 271.782 186.009C272.288 194.478 273.481 203.119 273.008 211.633C272.773 215.876 272.054 220.17 272.054 224.418C272.054 229.847 271.353 235.366 271.1 240.801C270.984 243.31 271.073 245.84 271.073 248.352C271.073 249.121 270.88 250.3 271.318 248.897C272.662 244.596 274.251 240.09 275.216 235.676C276.326 230.606 276.651 225.303 278.515 220.411C280.002 216.507 281.006 214.316 284.866 213.351C290.447 211.955 296.457 211.876 302.204 212.642C304.507 212.949 306.04 213.756 308.473 213.569C312.189 213.283 315.843 212.835 319.568 213.378C321.677 213.685 323.605 214.577 325.756 214.577C328.275 214.577 329.187 212.891 331.399 214.55C334.091 216.569 333.256 221.238 333.361 224.391C333.737 235.642 333.879 246.865 333.879 258.138C333.879 264.213 333.389 270.246 333.389 276.348C333.389 284.07 333.216 291.749 332.925 299.464C332.834 301.889 332.34 304.266 332.435 306.688C332.705 313.584 333.161 320.474 333.389 327.378C333.527 331.556 334.233 335.897 333.852 340.081C333.631 342.511 329.951 341.498 328.509 341.362C310.422 339.667 292.233 339.263 274.072 339.263C256.018 339.263 238 340.291 219.988 341.417C211.421 341.952 202.992 342.588 194.419 341.853C168.192 339.605 142.037 340.182 115.774 339.209C106.978 338.883 98.5231 338.387 89.7412 338.745C85.0757 338.936 80.4664 339.209 75.7842 339.209" stroke="#E5E5E5" stroke-linecap="round" stroke-linejoin="round"/>
<path d="M124.852 335.283C131.299 329.974 136.926 323.749 144.042 319.255C146.704 317.574 150.141 316.764 152.438 314.566C159.115 308.18 166.361 302.526 173.156 296.275C174.826 294.738 176.307 293.033 177.954 291.504C178.854 290.668 182.089 287.302 183.242 287.197C194.323 286.19 205.314 286.61 216.335 287.988C221.34 288.613 226.252 289.619 231.165 290.741C237.827 292.263 244.603 292.989 251.282 294.394C258.865 295.989 266.269 298.57 273.826 300.173C278.345 301.131 282.779 302.268 287.265 303.389C287.732 303.506 290.352 303.621 290.591 304.098C291.256 305.429 290.968 308.311 291.081 309.768C291.414 314.046 289.534 319.55 290.727 323.725C291.58 326.71 291.681 331.012 291.681 334.302" stroke="#E5E5E5" stroke-linecap="round" stroke-linejoin="round"/>
<path d="M-1.74268 310.75C2.03467 311.545 5.40273 313.347 9.1067 314.348C13.1537 315.442 17.3877 315.907 21.5371 316.392C27.2595 317.061 33.579 318.161 39.365 317.51C47.2049 316.628 55.4283 314.655 62.2632 310.75C63.4222 310.087 63.6341 303.01 64.0078 301.427C64.7211 298.406 65.5606 295.138 65.9433 292.077C66.2514 289.612 67.005 286.955 67.9332 284.635C68.7831 282.51 68.9158 280.569 69.5143 278.474C69.9441 276.97 69.923 275.721 70.9045 274.412C71.5847 273.505 73.6867 271.101 73.8213 270.024C74.3982 265.409 76.6487 278.913 77.4741 283.49C78.7787 290.725 78.2374 298.245 78.2374 305.57C78.2374 311.796 75.784 317.655 75.784 323.807C75.784 327.976 73.4223 331.633 73.3307 335.665C73.3136 336.414 72.84 340.756 72.84 339.209" stroke="#E5E5E5" stroke-linecap="round" stroke-linejoin="round"/>
<path d="M-8.12134 186.609C6.91687 185.568 21.9844 185.064 37.0208 184.046C45.7633 183.455 54.3508 184.777 63.0538 183.174C71.8906 181.546 80.6305 179.582 89.6594 179.767C94.3355 179.862 98.959 180.893 103.589 180.993C109.533 181.123 115.333 181.577 121.253 182.193C134.78 183.6 149.392 181.581 162.634 184.892C164.571 185.376 172.718 188.031 173.919 185.628" stroke="#E5E5E5" stroke-linecap="round" stroke-linejoin="round"/>
</g>
<defs>
<clipPath id="clip0">
<rect width="330" height="330" fill="white"/>
</clipPath>
</defs>
</svg>
